<?xml version="1.0" encoding="UTF-8"?>
<svg id="Layer_1" data-name="Layer 1" xmlns="http://www.w3.org/2000/svg" xmlns:xlink="http://www.w3.org/1999/xlink" viewBox="0 0 162 53">
  <defs>
    <style>
      .cls-1 {
        fill: url(#linear-gradient-2);
      }

      .cls-2 {
        fill: #fff;
      }

      .cls-3 {
        letter-spacing: .15em;
      }

      .cls-4 {
        font-family: Oswald-Medium, Oswald;
        font-size: 25.29px;
        font-weight: 500;
      }

      .cls-5 {
        letter-spacing: .15em;
      }

      .cls-6 {
        fill: url(#linear-gradient);
      }
    </style>
    <linearGradient id="linear-gradient" x1="80.13" y1="16.38" x2="80.13" y2="16.07" gradientUnits="userSpaceOnUse">
      <stop offset="0" stop-color="#fff"/>
      <stop offset="1" stop-color="#000"/>
    </linearGradient>
    <linearGradient id="linear-gradient-2" x1="80.13" y1="15.23" x2="80.13" y2="40.25" gradientUnits="userSpaceOnUse">
      <stop offset="0" stop-color="#662775"/>
      <stop offset=".49" stop-color="#8e2d6c"/>
      <stop offset=".56" stop-color="#922d6b"/>
      <stop offset="1" stop-color="#a8326a"/>
    </linearGradient>
  </defs>
  <rect class="cls-2" width="162" height="53"/>
  <g>
    <g>
      <g>
        <path class="cls-6" d="M7.31,29.57v-7.31c0-4.2,1.34-6.86,5.84-6.86,4.2,0,5.54,2.33,5.54,5.89v1.72h-3.59v-1.77c0-1.72-.03-3.11-1.92-3.11s-2.1,1.47-2.1,3.34v8.88c0,2.23,.46,3.29,2.1,3.29,1.85,0,1.92-1.44,1.92-3.26v-1.85h3.59v1.64c0,3.62-1.21,6.22-5.54,6.22s-5.84-2.83-5.84-6.83Z"/>
        <path class="cls-6" d="M24.76,29.69v-7.69c0-4.15,1.52-6.6,5.92-6.6s5.89,2.45,5.89,6.6v7.69c0,4.12-1.52,6.7-5.89,6.7s-5.92-2.56-5.92-6.7Zm8.02,.89v-9.44c0-1.72-.28-3.01-2.1-3.01s-2.12,1.29-2.12,3.01v9.44c0,1.69,.28,3.06,2.12,3.06s2.1-1.37,2.1-3.06Z"/>
        <path class="cls-6" d="M43.13,15.63h4.83c4.98,0,6.5,2,6.5,6.38v7.46c0,4.5-1.54,6.65-6.35,6.65h-4.98V15.63Zm4.88,17.89c2.56,0,2.66-1.37,2.66-3.92v-7.84c0-2.45-.25-3.47-2.71-3.47h-1.11v15.23h1.16Z"/>
        <path class="cls-6" d="M61.01,15.63h8.6v2.63h-4.88v5.89h3.85v2.61h-3.85v6.8h4.93v2.56h-8.65V15.63Z"/>
        <path class="cls-6" d="M75.63,15.63h4.93c4.1,0,6.43,1.32,6.43,5.44,0,2.45-.61,4.17-2.53,4.96l2.86,10.09h-3.74l-2.45-9.39h-1.77v9.39h-3.72V15.63Zm4.91,8.78c2.15,0,2.93-.94,2.93-3.14,0-2.07-.58-3.09-2.73-3.09h-1.39v6.22h1.19Z"/>
        <path class="cls-6" d="M92.93,33.72l5.49-15.51h-5.21v-2.58h8.98v1.92l-5.72,16.01h5.74v2.56h-9.28v-2.4Z"/>
        <path class="cls-6" d="M108.16,15.63h5.06c3.59,0,6,1.21,6,5.26,0,2.5-1.04,3.9-2.96,4.2,2.4,.46,3.54,2.18,3.54,5.06,0,3.92-1.92,5.97-5.72,5.97h-5.92V15.63Zm5.01,8.37c2.23,0,2.81-.99,2.81-3.06s-1.06-2.71-3.34-2.71h-.76v5.77h1.29Zm.15,9.49c2.28,0,2.91-1.06,2.91-3.37,0-2.43-.81-3.54-3.04-3.54h-1.32v6.91h1.44Z"/>
        <path class="cls-6" d="M125.71,29.69v-7.69c0-4.15,1.52-6.6,5.92-6.6s5.89,2.45,5.89,6.6v7.69c0,4.12-1.52,6.7-5.89,6.7s-5.92-2.56-5.92-6.7Zm8.02,.89v-9.44c0-1.72-.28-3.01-2.1-3.01s-2.12,1.29-2.12,3.01v9.44c0,1.69,.28,3.06,2.12,3.06s2.1-1.37,2.1-3.06Z"/>
        <path class="cls-6" d="M146.02,18.38h-3.26v-2.76h10.2v2.76h-3.19v17.73h-3.74V18.38Z"/>
      </g>
      <text class="cls-4" transform="translate(6.1 36.12)"><tspan class="cls-5" x="0" y="0">CODERZB</tspan><tspan class="cls-3" x="118.4" y="0">O</tspan><tspan class="cls-5" x="136.33" y="0">T</tspan></text>
      <g>
        <path class="cls-1" d="M7.31,29.57v-7.31c0-4.2,1.34-6.86,5.84-6.86,4.2,0,5.54,2.33,5.54,5.89v1.72h-3.59v-1.77c0-1.72-.03-3.11-1.92-3.11s-2.1,1.47-2.1,3.34v8.88c0,2.23,.46,3.29,2.1,3.29,1.85,0,1.92-1.44,1.92-3.26v-1.85h3.59v1.64c0,3.62-1.21,6.22-5.54,6.22s-5.84-2.83-5.84-6.83Z"/>
        <path class="cls-1" d="M24.76,29.69v-7.69c0-4.15,1.52-6.6,5.92-6.6s5.89,2.45,5.89,6.6v7.69c0,4.12-1.52,6.7-5.89,6.7s-5.92-2.56-5.92-6.7Zm8.02,.89v-9.44c0-1.72-.28-3.01-2.1-3.01s-2.12,1.29-2.12,3.01v9.44c0,1.69,.28,3.06,2.12,3.06s2.1-1.37,2.1-3.06Z"/>
        <path class="cls-1" d="M43.13,15.63h4.83c4.98,0,6.5,2,6.5,6.38v7.46c0,4.5-1.54,6.65-6.35,6.65h-4.98V15.63Zm4.88,17.89c2.56,0,2.66-1.37,2.66-3.92v-7.84c0-2.45-.25-3.47-2.71-3.47h-1.11v15.23h1.16Z"/>
        <path class="cls-1" d="M61.01,15.63h8.6v2.63h-4.88v5.89h3.85v2.61h-3.85v6.8h4.93v2.56h-8.65V15.63Z"/>
        <path class="cls-1" d="M75.63,15.63h4.93c4.1,0,6.43,1.32,6.43,5.44,0,2.45-.61,4.17-2.53,4.96l2.86,10.09h-3.74l-2.45-9.39h-1.77v9.39h-3.72V15.63Zm4.91,8.78c2.15,0,2.93-.94,2.93-3.14,0-2.07-.58-3.09-2.73-3.09h-1.39v6.22h1.19Z"/>
        <path class="cls-1" d="M92.93,33.72l5.49-15.51h-5.21v-2.58h8.98v1.92l-5.72,16.01h5.74v2.56h-9.28v-2.4Z"/>
        <path class="cls-1" d="M108.16,15.63h5.06c3.59,0,6,1.21,6,5.26,0,2.5-1.04,3.9-2.96,4.2,2.4,.46,3.54,2.18,3.54,5.06,0,3.92-1.92,5.97-5.72,5.97h-5.92V15.63Zm5.01,8.37c2.23,0,2.81-.99,2.81-3.06s-1.06-2.71-3.34-2.71h-.76v5.77h1.29Zm.15,9.49c2.28,0,2.91-1.06,2.91-3.37,0-2.43-.81-3.54-3.04-3.54h-1.32v6.91h1.44Z"/>
        <path class="cls-1" d="M125.71,29.69v-7.69c0-4.15,1.52-6.6,5.92-6.6s5.89,2.45,5.89,6.6v7.69c0,4.12-1.52,6.7-5.89,6.7s-5.92-2.56-5.92-6.7Zm8.02,.89v-9.44c0-1.72-.28-3.01-2.1-3.01s-2.12,1.29-2.12,3.01v9.44c0,1.69,.28,3.06,2.12,3.06s2.1-1.37,2.1-3.06Z"/>
        <path class="cls-1" d="M146.02,18.38h-3.26v-2.76h10.2v2.76h-3.19v17.73h-3.74V18.38Z"/>
      </g>
    </g>
    <polyline class="cls-2" points="7.85 16.35 11.89 20.39 11.37 20.91 7.33 16.87"/>
    <polyline class="cls-2" points="7.68 35.84 11.72 31.8 12.25 32.33 8.21 36.37"/>
    <polyline class="cls-2" points="25.42 16.35 29.46 20.39 28.93 20.91 24.89 16.87"/>
    <polyline class="cls-2" points="25.24 35.84 29.28 31.8 29.81 32.33 25.77 36.37"/>
    <polyline class="cls-2" points="126.95 15.29 130.98 19.33 130.46 19.86 126.42 15.82"/>
    <polyline class="cls-2" points="126.77 34.79 130.81 30.75 131.34 31.28 127.3 35.32"/>
    <polyline class="cls-2" points="108.68 14.94 112.72 18.98 112.19 19.51 108.15 15.47"/>
    <polyline class="cls-2" points="108.15 36.19 112.19 32.15 112.72 32.68 108.68 36.72"/>
    <polyline class="cls-2" points="43.69 14.94 47.73 18.98 47.2 19.51 43.16 15.47"/>
    <polyline class="cls-2" points="60.75 14.73 65.96 18.54 65.46 19.22 60.25 15.41"/>
    <polyline class="cls-2" points="76.01 14.94 80.05 18.98 79.52 19.51 75.48 15.47"/>
    <polyline class="cls-2" points="43.16 36.19 47.2 32.15 47.73 32.68 43.69 36.72"/>
    <polyline class="cls-2" points="61.08 36.19 65.12 32.15 65.64 32.68 61.6 36.72"/>
    <polyline class="cls-2" points="96.38 21.04 102.13 15.29 102.88 16.04 97.13 21.79"/>
    <polyline class="cls-2" points="144.16 21.04 149.91 15.29 151.66 15.04 145.91 20.79"/>
  </g>
</svg>