<?xml version="1.0" encoding="UTF-8"?>
<svg id="Layer_1" data-name="Layer 1" xmlns="http://www.w3.org/2000/svg" xmlns:xlink="http://www.w3.org/1999/xlink" viewBox="0 0 256.5 190">
  <defs>
    <style>
      .cls-1 {
        fill: url(#linear-gradient-2);
      }

      .cls-2 {
        fill: #fff;
      }

      .cls-3 {
        letter-spacing: .15em;
      }

      .cls-4 {
        font-family: Oswald-Medium, Oswald;
        font-size: 25.29px;
        font-weight: 500;
      }

      .cls-5 {
        letter-spacing: .15em;
      }

      .cls-6 {
        fill: url(#linear-gradient-5);
      }

      .cls-7 {
        fill: url(#New_Gradient_Swatch_copy);
      }

      .cls-8 {
        fill: url(#linear-gradient-3);
      }

      .cls-9 {
        fill: url(#linear-gradient);
      }

      .cls-10 {
        fill: url(#linear-gradient-4);
      }
    </style>
    <linearGradient id="linear-gradient" x1="130.03" y1="130.95" x2="130.03" y2="130.64" gradientUnits="userSpaceOnUse">
      <stop offset="0" stop-color="#fff"/>
      <stop offset="1" stop-color="#000"/>
    </linearGradient>
    <linearGradient id="linear-gradient-2" x1="130.03" y1="129.8" x2="130.03" y2="154.83" gradientUnits="userSpaceOnUse">
      <stop offset="0" stop-color="#662775"/>
      <stop offset=".49" stop-color="#8e2d6c"/>
      <stop offset=".56" stop-color="#922d6b"/>
      <stop offset="1" stop-color="#a8326a"/>
    </linearGradient>
    <linearGradient id="linear-gradient-3" x1="82.53" y1="70.16" x2="128.08" y2="70.16" gradientUnits="userSpaceOnUse">
      <stop offset="0" stop-color="#2e1959"/>
      <stop offset="1" stop-color="#3d1e6c"/>
    </linearGradient>
    <linearGradient id="New_Gradient_Swatch_copy" data-name="New Gradient Swatch copy" x1="105.25" y1="44.16" x2="167.11" y2="44.16" gradientUnits="userSpaceOnUse">
      <stop offset="0" stop-color="#dd245e"/>
      <stop offset="1" stop-color="#8f3398"/>
    </linearGradient>
    <linearGradient id="linear-gradient-4" x1="96.7" y1="94.78" x2="159" y2="94.78" gradientUnits="userSpaceOnUse">
      <stop offset="0" stop-color="#f02c3b"/>
      <stop offset="1" stop-color="#f89618"/>
    </linearGradient>
    <linearGradient id="linear-gradient-5" x1="119.46" y1="92.83" x2="176.79" y2="92.83" xlink:href="#linear-gradient-4"/>
  </defs>
  <rect class="cls-2" width="257" height="190"/>
  <g>
    <g>
      <g>
        <path class="cls-9" d="M57.21,144.14v-7.31c0-4.2,1.34-6.86,5.84-6.86,4.2,0,5.54,2.33,5.54,5.89v1.72h-3.59v-1.77c0-1.72-.03-3.11-1.92-3.11s-2.1,1.47-2.1,3.34v8.88c0,2.23,.46,3.29,2.1,3.29,1.85,0,1.92-1.44,1.92-3.26v-1.85h3.59v1.64c0,3.62-1.21,6.22-5.54,6.22s-5.84-2.83-5.84-6.83Z"/>
        <path class="cls-9" d="M74.67,144.26v-7.69c0-4.15,1.52-6.6,5.92-6.6s5.89,2.45,5.89,6.6v7.69c0,4.12-1.52,6.7-5.89,6.7s-5.92-2.56-5.92-6.7Zm8.02,.89v-9.44c0-1.72-.28-3.01-2.1-3.01s-2.12,1.29-2.12,3.01v9.44c0,1.69,.28,3.06,2.12,3.06s2.1-1.37,2.1-3.06Z"/>
        <path class="cls-9" d="M93.03,130.2h4.83c4.98,0,6.5,2,6.5,6.38v7.46c0,4.5-1.54,6.65-6.35,6.65h-4.98v-20.49Zm4.88,17.89c2.56,0,2.66-1.37,2.66-3.92v-7.84c0-2.45-.25-3.47-2.71-3.47h-1.11v15.23h1.16Z"/>
        <path class="cls-9" d="M110.91,130.2h8.6v2.63h-4.88v5.89h3.85v2.61h-3.85v6.8h4.93v2.56h-8.65v-20.49Z"/>
        <path class="cls-9" d="M125.53,130.2h4.93c4.1,0,6.43,1.32,6.43,5.44,0,2.45-.61,4.17-2.53,4.96l2.86,10.09h-3.74l-2.45-9.39h-1.77v9.39h-3.72v-20.49Zm4.91,8.78c2.15,0,2.93-.94,2.93-3.14,0-2.07-.58-3.09-2.73-3.09h-1.39v6.22h1.19Z"/>
        <path class="cls-9" d="M142.83,148.29l5.49-15.51h-5.21v-2.58h8.98v1.92l-5.72,16.01h5.74v2.56h-9.28v-2.4Z"/>
        <path class="cls-9" d="M158.06,130.2h5.06c3.59,0,6,1.21,6,5.26,0,2.5-1.04,3.9-2.96,4.2,2.4,.46,3.54,2.18,3.54,5.06,0,3.92-1.92,5.97-5.72,5.97h-5.92v-20.49Zm5.01,8.37c2.23,0,2.81-.99,2.81-3.06s-1.06-2.71-3.34-2.71h-.76v5.77h1.29Zm.15,9.49c2.28,0,2.91-1.06,2.91-3.37,0-2.43-.81-3.54-3.04-3.54h-1.32v6.91h1.44Z"/>
        <path class="cls-9" d="M175.61,144.26v-7.69c0-4.15,1.52-6.6,5.92-6.6s5.89,2.45,5.89,6.6v7.69c0,4.12-1.52,6.7-5.89,6.7s-5.92-2.56-5.92-6.7Zm8.02,.89v-9.44c0-1.72-.28-3.01-2.1-3.01s-2.12,1.29-2.12,3.01v9.44c0,1.69,.28,3.06,2.12,3.06s2.1-1.37,2.1-3.06Z"/>
        <path class="cls-9" d="M195.92,132.96h-3.26v-2.76h10.2v2.76h-3.19v17.73h-3.74v-17.73Z"/>
      </g>
      <text class="cls-4" transform="translate(56 150.69)"><tspan class="cls-5" x="0" y="0">CODERZB</tspan><tspan class="cls-3" x="118.4" y="0">O</tspan><tspan class="cls-5" x="136.33" y="0">T</tspan></text>
      <g>
        <path class="cls-1" d="M57.21,144.14v-7.31c0-4.2,1.34-6.86,5.84-6.86,4.2,0,5.54,2.33,5.54,5.89v1.72h-3.59v-1.77c0-1.72-.03-3.11-1.92-3.11s-2.1,1.47-2.1,3.34v8.88c0,2.23,.46,3.29,2.1,3.29,1.85,0,1.92-1.44,1.92-3.26v-1.85h3.59v1.64c0,3.62-1.21,6.22-5.54,6.22s-5.84-2.83-5.84-6.83Z"/>
        <path class="cls-1" d="M74.67,144.26v-7.69c0-4.15,1.52-6.6,5.92-6.6s5.89,2.45,5.89,6.6v7.69c0,4.12-1.52,6.7-5.89,6.7s-5.92-2.56-5.92-6.7Zm8.02,.89v-9.44c0-1.72-.28-3.01-2.1-3.01s-2.12,1.29-2.12,3.01v9.44c0,1.69,.28,3.06,2.12,3.06s2.1-1.37,2.1-3.06Z"/>
        <path class="cls-1" d="M93.03,130.2h4.83c4.98,0,6.5,2,6.5,6.38v7.46c0,4.5-1.54,6.65-6.35,6.65h-4.98v-20.49Zm4.88,17.89c2.56,0,2.66-1.37,2.66-3.92v-7.84c0-2.45-.25-3.47-2.71-3.47h-1.11v15.23h1.16Z"/>
        <path class="cls-1" d="M110.91,130.2h8.6v2.63h-4.88v5.89h3.85v2.61h-3.85v6.8h4.93v2.56h-8.65v-20.49Z"/>
        <path class="cls-1" d="M125.53,130.2h4.93c4.1,0,6.43,1.32,6.43,5.44,0,2.45-.61,4.17-2.53,4.96l2.86,10.09h-3.74l-2.45-9.39h-1.77v9.39h-3.72v-20.49Zm4.91,8.78c2.15,0,2.93-.94,2.93-3.14,0-2.07-.58-3.09-2.73-3.09h-1.39v6.22h1.19Z"/>
        <path class="cls-1" d="M142.83,148.29l5.49-15.51h-5.21v-2.58h8.98v1.92l-5.72,16.01h5.74v2.56h-9.28v-2.4Z"/>
        <path class="cls-1" d="M158.06,130.2h5.06c3.59,0,6,1.21,6,5.26,0,2.5-1.04,3.9-2.96,4.2,2.4,.46,3.54,2.18,3.54,5.06,0,3.92-1.92,5.97-5.72,5.97h-5.92v-20.49Zm5.01,8.37c2.23,0,2.81-.99,2.81-3.06s-1.06-2.71-3.34-2.71h-.76v5.77h1.29Zm.15,9.49c2.28,0,2.91-1.06,2.91-3.37,0-2.43-.81-3.54-3.04-3.54h-1.32v6.91h1.44Z"/>
        <path class="cls-1" d="M175.61,144.26v-7.69c0-4.15,1.52-6.6,5.92-6.6s5.89,2.45,5.89,6.6v7.69c0,4.12-1.52,6.7-5.89,6.7s-5.92-2.56-5.92-6.7Zm8.02,.89v-9.44c0-1.72-.28-3.01-2.1-3.01s-2.12,1.29-2.12,3.01v9.44c0,1.69,.28,3.06,2.12,3.06s2.1-1.37,2.1-3.06Z"/>
        <path class="cls-1" d="M195.92,132.96h-3.26v-2.76h10.2v2.76h-3.19v17.73h-3.74v-17.73Z"/>
      </g>
    </g>
    <polyline class="cls-2" points="57.76 130.92 61.8 134.96 61.27 135.48 57.23 131.44"/>
    <polyline class="cls-2" points="57.58 150.41 61.62 146.37 62.15 146.9 58.11 150.94"/>
    <polyline class="cls-2" points="75.32 130.92 79.36 134.96 78.83 135.48 74.79 131.44"/>
    <polyline class="cls-2" points="75.15 150.41 79.19 146.37 79.71 146.9 75.67 150.94"/>
    <polyline class="cls-2" points="176.85 129.86 180.89 133.9 180.36 134.43 176.32 130.39"/>
    <polyline class="cls-2" points="176.67 149.36 180.71 145.32 181.24 145.85 177.2 149.89"/>
    <polyline class="cls-2" points="158.58 129.51 162.62 133.55 162.09 134.08 158.05 130.04"/>
    <polyline class="cls-2" points="158.05 150.77 162.09 146.73 162.62 147.25 158.58 151.29"/>
    <polyline class="cls-2" points="93.59 129.51 97.63 133.55 97.1 134.08 93.06 130.04"/>
    <polyline class="cls-2" points="110.65 129.3 115.86 133.12 115.36 133.79 110.15 129.98"/>
    <polyline class="cls-2" points="125.91 129.51 129.95 133.55 129.42 134.08 125.38 130.04"/>
    <polyline class="cls-2" points="93.06 150.77 97.1 146.73 97.63 147.25 93.59 151.29"/>
    <polyline class="cls-2" points="110.98 150.77 115.02 146.73 115.55 147.25 111.51 151.29"/>
    <polyline class="cls-2" points="146.28 135.61 152.03 129.86 152.78 130.61 147.03 136.36"/>
    <polyline class="cls-2" points="194.06 135.61 199.81 129.86 201.56 129.61 195.81 135.36"/>
  </g>
  <g>
    <path class="cls-8" d="M96.7,104.79c18.7,13.79,30.75-2.53,30.75-2.53l-21.62-30.84,22.25-31.78s-7.58-14.8-22.83-7.72-21.2,27.2-21.2,27.2c-7.03,28.1,12.65,45.67,12.65,45.67"/>
    <path class="cls-7" d="M157.47,36.28c5.97,4.92,9.64,3.51,9.64,3.51-2.66,13-18.42,10.89-18.42,10.89-.35,9.13-5.27,11.94-5.27,11.94-4.92-4.57-7.73-9.49-7.73-9.49-5.97-11.59-13.11-28.05-30.44-21.23,0,0,26.77-16.6,52.22,4.37Z"/>
    <path class="cls-10" d="M159,74.22s-4.58,9.84-6.69,16.86c-2.11,7.03-6.34,16.51-14.43,22.13s-19.71,3.16-19.71,3.16c0,0-10.91-1.76-21.47-11.59,0,0,24.69,18.27,37.51-14.4,3.93-10.02,10.36-22.13,24.79-16.16"/>
    <path class="cls-6" d="M167.83,82.52c.72-9.09,8.96-9,8.96-9-2.81-5.97-7.38-5.97-7.38-5.97-7.03-.35-10.54,6.67-10.54,6.67,0,0-3.86,8.43-6.67,16.86-2.81,8.43-5.87,14.63-12.07,20.31,0,0-6.34,6.83-20.67,5.2,0,0,44.68,12.51,48.37-34.08Z"/>
  </g>
</svg>