<?xml version="1.0" encoding="UTF-8"?>
<svg id="Layer_1" data-name="Layer 1" xmlns="http://www.w3.org/2000/svg" viewBox="0 0 266.15 43.77">
  <defs>
    <style>
      .cls-1 {
        fill: #cdcaca;
      }

      .cls-2 {
        fill: #726c6c;
      }

      .cls-3 {
        fill: #5a5353;
      }

      .cls-4 {
        fill: #9b9696;
      }

      .cls-5 {
        fill: #a39e9e;
      }

      .cls-6 {
        fill: #6e6768;
      }

      .cls-7 {
        fill: #726b6b;
      }

      .cls-8 {
        fill: #464141;
      }

      .cls-9 {
        fill: #aaa6a5;
      }

      .cls-10 {
        fill: #76706f;
      }

      .cls-11 {
        fill: #332e2e;
      }

      .cls-12 {
        fill: #615a5a;
      }

      .cls-13 {
        fill: #d7d5d4;
      }

      .cls-14 {
        fill: #c0bcbc;
      }

      .cls-15 {
        fill: #787271;
      }

      .cls-16 {
        fill: #fff;
      }

      .cls-17 {
        fill: #242021;
      }

      .cls-18 {
        fill: #7c7575;
      }

      .cls-19 {
        fill: #716b6b;
      }

      .cls-20 {
        fill: #fdfcfc;
      }

      .cls-21 {
        fill: #766f6f;
      }

      .cls-22 {
        fill: #bfbbba;
      }

      .cls-23 {
        fill: #d3d0d0;
      }

      .cls-24 {
        fill: #fafafa;
      }

      .cls-25 {
        fill: #625b5b;
      }

      .cls-26 {
        fill: #bbb7b7;
      }

      .cls-27 {
        fill: #b3afae;
      }

      .cls-28 {
        fill: #847e7d;
      }

      .cls-29 {
        fill: #b4b0af;
      }

      .cls-30 {
        fill: #c1bdbd;
      }

      .cls-31 {
        fill: #777070;
      }

      .cls-32 {
        fill: #928d8d;
      }

      .cls-33 {
        fill: #cac7c6;
      }

      .cls-34 {
        fill: #6f6969;
      }

      .cls-35 {
        fill: #aca8a8;
      }

      .cls-36 {
        fill: #787172;
      }

      .cls-37 {
        fill: #c5c2c1;
      }

      .cls-38 {
        fill: #2a2626;
      }

      .cls-39 {
        fill: #e2e0e0;
      }

      .cls-40 {
        fill: #d1cece;
      }

      .cls-41 {
        fill: #4e4848;
      }

      .cls-42 {
        fill: #797373;
      }

      .cls-43 {
        fill: #989292;
      }

      .cls-44 {
        fill: #847d7d;
      }

      .cls-45 {
        fill: #8d8887;
      }

      .cls-46 {
        fill: #a8a3a3;
      }

      .cls-47 {
        fill: #9c9797;
      }

      .cls-48 {
        fill: #282424;
      }

      .cls-49 {
        fill: #928d8c;
      }

      .cls-50 {
        fill: #999594;
      }

      .cls-51 {
        fill: #969191;
      }

      .cls-52 {
        fill: #b9b5b4;
      }

      .cls-53 {
        fill: #4b4545;
      }

      .cls-54 {
        fill: #403a3a;
      }

      .cls-55 {
        fill: #c6c3c2;
      }

      .cls-56 {
        fill: #7b7474;
      }

      .cls-57 {
        fill: #979191;
      }

      .cls-58 {
        fill: #524c4c;
      }

      .cls-59 {
        fill: #847e7e;
      }

      .cls-60 {
        fill: #797271;
      }

      .cls-61 {
        fill: #7b7473;
      }

      .cls-62 {
        fill: #bfbbbb;
      }

      .cls-63 {
        fill: #b2aeae;
      }

      .cls-64 {
        fill: #938e8e;
      }

      .cls-65 {
        fill: #dedcdc;
      }

      .cls-66 {
        fill: #ada8a7;
      }

      .cls-67 {
        fill: #f1f0ef;
      }

      .cls-68 {
        fill: #7e7777;
      }

      .cls-69 {
        fill: #bab6b5;
      }

      .cls-70 {
        fill: #c5c1c0;
      }

      .cls-71 {
        fill: #746e6d;
      }

      .cls-72 {
        fill: #d1cfce;
      }

      .cls-73 {
        fill: #dbd8d8;
      }

      .cls-74 {
        fill: #d6d4d3;
      }

      .cls-75 {
        fill: #756e6e;
      }

      .cls-76 {
        fill: #9f9b9a;
      }

      .cls-77 {
        fill: #544e4d;
      }

      .cls-78 {
        fill: #716a6b;
      }

      .cls-79 {
        fill: #5b5454;
      }

      .cls-80 {
        fill: #494343;
      }

      .cls-81 {
        fill: #b0acab;
      }

      .cls-82 {
        fill: #5f5959;
      }

      .cls-83 {
        fill: #7d7777;
      }

      .cls-84 {
        fill: #8b8585;
      }

      .cls-85 {
        fill: #433e3d;
      }

      .cls-86 {
        fill: #a9a5a4;
      }

      .cls-87 {
        fill: #9f9a9a;
      }

      .cls-88 {
        fill: #2e2929;
      }

      .cls-89 {
        fill: #8f8a8a;
      }

      .cls-90 {
        fill: #868180;
      }

      .cls-91 {
        fill: #c1bdbc;
      }

      .cls-92 {
        fill: #7c7676;
      }

      .cls-93 {
        fill: #a9a4a4;
      }

      .cls-94 {
        fill: #787170;
      }

      .cls-95 {
        fill: #7b7575;
      }

      .cls-96 {
        fill: #959190;
      }

      .cls-97 {
        fill: #686161;
      }

      .cls-98 {
        fill: #c3bfbf;
      }

      .cls-99 {
        fill: #6f6868;
      }

      .cls-100 {
        fill: #c8c4c4;
      }

      .cls-101 {
        fill: #c7c4c4;
      }

      .cls-102 {
        fill: #bcb9b8;
      }

      .cls-103 {
        fill: #b8b4b4;
      }

      .cls-104 {
        fill: #aba6a6;
      }

      .cls-105 {
        fill: #605959;
      }

      .cls-106 {
        fill: #878181;
      }

      .cls-107 {
        fill: #4a4444;
      }

      .cls-108 {
        fill: #c2bfbf;
      }

      .cls-109 {
        fill: #726d6d;
      }

      .cls-110 {
        fill: #c5c1c1;
      }

      .cls-111 {
        fill: #888382;
      }

      .cls-112 {
        fill: #504a4a;
      }

      .cls-113 {
        fill: #918c8c;
      }

      .cls-114 {
        fill: #b1acac;
      }

      .cls-115 {
        fill: #f7f7f6;
      }

      .cls-116 {
        fill: #585151;
      }

      .cls-117 {
        fill: #e6e5e4;
      }

      .cls-118 {
        fill: #c0bdbc;
      }

      .cls-119 {
        fill: #cdcac9;
      }

      .cls-120 {
        fill: #878281;
      }

      .cls-121 {
        fill: #b7b3b3;
      }

      .cls-122 {
        fill: #c5c2c2;
      }

      .cls-123 {
        fill: #655f5f;
      }

      .cls-124 {
        fill: #7a7373;
      }

      .cls-125 {
        fill: #9f9b9b;
      }

      .cls-126 {
        fill: #2a2526;
      }

      .cls-127 {
        fill: #554f4e;
      }

      .cls-128 {
        fill: #2c2727;
      }

      .cls-129 {
        fill: #b3aeae;
      }

      .cls-130 {
        fill: #797272;
      }

      .cls-131 {
        fill: #b2adad;
      }

      .cls-132 {
        fill: #7d7776;
      }

      .cls-133 {
        fill: #888383;
      }

      .cls-134 {
        fill: #2e292a;
      }

      .cls-135 {
        fill: #817a7a;
      }

      .cls-136 {
        fill: #cbc8c7;
      }

      .cls-137 {
        fill: #544e4e;
      }

      .cls-138 {
        fill: #4f4949;
      }

      .cls-139 {
        fill: #f6f5f5;
      }

      .cls-140 {
        fill: #474141;
      }

      .cls-141 {
        fill: #716a6a;
      }

      .cls-142 {
        fill: #fdfdfd;
      }

      .cls-143 {
        fill: #696263;
      }

      .cls-144 {
        fill: #272223;
      }

      .cls-145 {
        fill: #999494;
      }

      .cls-146 {
        fill: #787272;
      }

      .cls-147 {
        fill: #fbfbfb;
      }

      .cls-148 {
        fill: #262222;
      }

      .cls-149 {
        fill: #252121;
      }

      .cls-150 {
        fill: #b5b1b0;
      }

      .cls-151 {
        fill: #bebbba;
      }

      .cls-152 {
        fill: #898383;
      }

      .cls-153 {
        fill: #cfcccb;
      }

      .cls-154 {
        fill: #95908f;
      }

      .cls-155 {
        fill: #302b2b;
      }

      .cls-156 {
        fill: #c0bcbb;
      }

      .cls-157 {
        fill: #5c5555;
      }

      .cls-158 {
        fill: #736d6c;
      }

      .cls-159 {
        fill: #8c8786;
      }

      .cls-160 {
        fill: #7a7474;
      }

      .cls-161 {
        fill: #413c3c;
      }

      .cls-162 {
        fill: #4f4a4a;
      }

      .cls-163 {
        fill: #b7b2b2;
      }

      .cls-164 {
        fill: #cfcdcc;
      }

      .cls-165 {
        fill: #989393;
      }

      .cls-166 {
        fill: #d0cecd;
      }

      .cls-167 {
        fill: #534d4d;
      }

      .cls-168 {
        fill: #b4afaf;
      }

      .cls-169 {
        fill: #706969;
      }

      .cls-170 {
        fill: #736d6d;
      }

      .cls-171 {
        fill: #474241;
      }

      .cls-172 {
        fill: #464040;
      }

      .cls-173 {
        fill: #655e5e;
      }

      .cls-174 {
        fill: #787171;
      }

      .cls-175 {
        fill: #a9a4a3;
      }

      .cls-176 {
        fill: #5e5757;
      }

      .cls-177 {
        fill: #8d8787;
      }

      .cls-178 {
        fill: #948f8f;
      }

      .cls-179 {
        fill: #564f4f;
      }

      .cls-180 {
        fill: #bebab9;
      }

      .cls-181 {
        fill: #514a4a;
      }

      .cls-182 {
        fill: #c8c5c5;
      }

      .cls-183 {
        fill: #7c7675;
      }

      .cls-184 {
        fill: #5c5655;
      }

      .cls-185 {
        fill: #807979;
      }

      .cls-186 {
        fill: #4f4a49;
      }

      .cls-187 {
        fill: #565050;
      }

      .cls-188 {
        fill: #e6e4e4;
      }

      .cls-189 {
        fill: #615b5b;
      }

      .cls-190 {
        fill: #5d5657;
      }

      .cls-191 {
        fill: #898483;
      }

      .cls-192 {
        fill: #6d6767;
      }

      .cls-193 {
        fill: #cbc7c7;
      }

      .cls-194 {
        fill: #aaa5a4;
      }

      .cls-195 {
        fill: #bdb9b8;
      }

      .cls-196 {
        fill: #c1bebd;
      }

      .cls-197 {
        fill: #aaa4a5;
      }

      .cls-198 {
        fill: #6c6565;
      }

      .cls-199 {
        fill: #797372;
      }

      .cls-200 {
        fill: #2d2829;
      }

      .cls-201 {
        fill: #938e8d;
      }

      .cls-202 {
        fill: #cfcccc;
      }

      .cls-203 {
        fill: #665f5f;
      }

      .cls-204 {
        fill: #8d8786;
      }

      .cls-205 {
        fill: #252122;
      }

      .cls-206 {
        fill: #aba7a6;
      }

      .cls-207 {
        fill: #837d7d;
      }

      .cls-208 {
        fill: #dddbdb;
      }

      .cls-209 {
        fill: #b9b4b4;
      }

      .cls-210 {
        fill: #6d6666;
      }

      .cls-211 {
        fill: #928c8c;
      }

      .cls-212 {
        fill: #242020;
      }

      .cls-213 {
        fill: #4a4544;
      }

      .cls-214 {
        fill: #817b7b;
      }

      .cls-215 {
        fill: #a7a2a2;
      }

      .cls-216 {
        fill: #2b2626;
      }

      .cls-217 {
        fill: #dcdad9;
      }

      .cls-218 {
        fill: #4c4646;
      }

      .cls-219 {
        fill: #423d3c;
      }

      .cls-220 {
        fill: #282324;
      }

      .cls-221 {
        fill: #a19c9c;
      }

      .cls-222 {
        fill: #807a7a;
      }

      .cls-223 {
        fill: #6e6767;
      }

      .cls-224 {
        fill: #b7b3b2;
      }

      .cls-225 {
        fill: #272323;
      }

      .cls-226 {
        fill: #4e4847;
      }

      .cls-227 {
        fill: #7f7979;
      }

      .cls-228 {
        fill: #908b8a;
      }

      .cls-229 {
        fill: #cecbca;
      }

      .cls-230 {
        fill: #726c6b;
      }

      .cls-231 {
        fill: #b5b1b1;
      }

      .cls-232 {
        fill: #898382;
      }

      .cls-233 {
        fill: #262122;
      }

      .cls-234 {
        fill: #7b7574;
      }

      .cls-235 {
        fill: #4b4646;
      }

      .cls-236 {
        fill: #c4c1c1;
      }

      .cls-237 {
        fill: #696262;
      }

      .cls-238 {
        fill: #aca7a7;
      }

      .cls-239 {
        fill: #5f5858;
      }

      .cls-240 {
        fill: #4b4645;
      }

      .cls-241 {
        fill: #868080;
      }

      .cls-242 {
        fill: #aea9a9;
      }

      .cls-243 {
        fill: #bdb9b9;
      }

      .cls-244 {
        fill: #bdbaba;
      }

      .cls-245 {
        fill: #676160;
      }

      .cls-246 {
        fill: #514b4b;
      }

      .cls-247 {
        fill: #7d7676;
      }

      .cls-248 {
        fill: #8b8686;
      }

      .cls-249 {
        fill: #b4b0b0;
      }

      .cls-250 {
        fill: #5e5758;
      }

      .cls-251 {
        fill: #cac6c6;
      }

      .cls-252 {
        fill: #56504f;
      }

      .cls-253 {
        fill: #cac7c7;
      }

      .cls-254 {
        fill: #a7a1a1;
      }

      .cls-255 {
        fill: #8f8989;
      }

      .cls-256 {
        fill: #2c2728;
      }

      .cls-257 {
        fill: #fcfcfc;
      }

      .cls-258 {
        fill: #b1adac;
      }
    </style>
  </defs>
  <path class="cls-16" d="M258.43,38.62c0,1.07,.42,2.56-.12,3.1-.54,.54-2.04,.12-3.12,.12-81.8,0-163.6,0-245.4,.03-1.03,0-1.21-.22-1.21-1.21,.04-12.28,.04-24.56,0-36.84,0-.89,.18-1.08,1.08-1.08,82.59,.03,165.18,.03,247.77,0,.87,0,1.02,.19,1.01,1.02-.04,10.8-.02,21.59-.02,32.39-.2,.18-.43,.25-.7,.22-.96-.29-1.45-1.26-2.36-1.63-.27-.47-.75-.51-1.22-.55-.89-.3-.85-.94-.63-1.65,.71-.69,1.55-.57,2.4-.37,.59,.19,1.04,.04,1.29-.55,.24-.72-.35-.53-.69-.62-.91-.27-1.8-.77-2.76-.16-.45,.27-1.3-.01-1.28,.91-.03,.17-.09,.32-.18,.47-.6,.51-.8,1.05-.07,1.62,.42,.59,1.08,.91,1.61,1.37,.5,.28,.95,.63,1.51,.8,.86,.32,1.12,.98,1.04,1.83-.14,.75-.75,1.16-1.23,1.67-.74,.3-1.28,.1-1.6-.63-.64-1.35-.83-1.44-1.69-.75,0,1.06,.86,1.51,1.52,2.1,1.01,.45,2,.63,2.93-.19,.59-.4,.93-1.04,1.43-1.53,.26-.1,.49-.06,.69,.12Z"/>
  <path class="cls-209" d="M257.63,36.19c.27-.01,.53-.02,.8-.04v2.47c-.24,0-.48,0-.72,.01-.58-.8-.53-1.62-.08-2.45Z"/>
  <path class="cls-212" d="M10.59,40.37c-1.16-.69-1.77-1.56-1.76-3.04,.07-10.52,.03-21.04,.06-31.55,0-.47-.46-1.37,.72-1.24,2.38,2.4,5,4.57,7.23,7.11,1.23,1.41,2.76,2.49,4.01,3.87,3.05,3.37,6.4,6.45,9.63,9.64,3.41,3.36,6.71,6.84,10.25,10.08,1.19,1.09,2.09,2.45,3.41,3.41,.37,.27,.6,.69,.52,1.2-.39,.86-1.18,.63-1.84,.63-7.14,.02-14.27,.01-21.41,.01-3.11,0-6.22,0-9.33,0-.5,0-1,.04-1.48-.1Z"/>
  <path class="cls-205" d="M44.25,3.54c.59,.41,1.16,.83,1.55,1.44,.14,.44,.11,.9,.11,1.35,0,10.08,0,20.16-.01,30.24,0,.7,.24,1.52-.63,1.97-1.04-.01-1.62-.77-2.23-1.42-3.25-3.47-6.71-6.73-10.09-10.07-4.82-4.76-9.61-9.56-14.46-14.29-2.63-2.57-5.26-5.13-7.89-7.7-.56-.54-.79-1.1,.11-1.56,.53-.15,1.08-.1,1.62-.1,10.11,0,20.21,0,30.32,0,.54,0,1.08-.07,1.6,.15Z"/>
  <path class="cls-149" d="M161.81,3.8c.02,5.84,.05,11.68,.04,17.51,0,.34,.15,.97-.47,.96-.66-.01-1.57,.41-1.93-.25-.42-.77-.74-.55-1.2-.23-1.57,1.1-4.56,.71-5.8-.77-.55-.66-1.55-1.06-1.35-2.18,.2-.69,.43-1.39-.23-1.98,0-.25,0-.49,0-.74,.56-.42,.38-1.04,.43-1.6,0-.33,.15-.61,.3-.89,.63-.86,1.24-1.74,2.27-2.21,.22-.19,.48-.31,.77-.32,.91-.01,1.82-.11,2.72,.1,.31,.2,.69,.22,1.01,.34,1.03,.38,.99-.25,.99-.91,0-2.28,.02-4.56,.03-6.84,.81-.57,1.62-.57,2.43,0Z"/>
  <path class="cls-149" d="M100.93,11.69c0,5.33-.01,10.67-.02,16-.81,.59-1.62,.56-2.44,.03h0c-.62-.75-.3-1.63-.35-2.46-.05-.81,.02-1.62-.02-2.43-.05-1.01-.18-1.07-1.17-.55-1.24,.09-2.47,.15-3.71,.01-.27-.34-.72-.42-1.02-.72-1.39-.64-1.96-1.83-2.23-3.22-.05-.24-.03-.49-.05-.73-.35-.5-.35-1,0-1.5-.21-1.25,.59-2.17,1.06-3.2,.39-.61,.85-1.16,1.55-1.44,.15,0,.29-.02,.44-.03,.22-.2,.47-.31,.77-.33,.91,0,1.82-.14,2.73,.06,.4,.52,1.22,.18,1.65,.84,.16,.26,.21-.37,.38-.53,.87-.56,1.7-.69,2.44,.22Z"/>
  <path class="cls-148" d="M175.84,7.74l-.07,.65c-.5,.51-.33,1.19-.47,1.79,.09,.15,.19,.3,.28,.46,.32,.4,.81,.38,1.24,.52,1.16,.48,2.41,.8,3.45,1.46,2.06,1.31,2.89,3.27,2.48,5.69-.36,.34-.39,.81-.48,1.26-.41,.8-1.2,1.25-1.75,1.93-.36,.51-.99,.31-1.45,.55-1.3,.61-2.66,.18-3.99,.23-.27-.33-.72-.42-1.02-.72-.58,.08-.74-.26-.74-.74-.35-.32-.54-.8-1.02-.98-.07-.09-.15-.18-.22-.26,.24-.47,.01-.85-.22-1.24,0-.24,0-.48,0-.71,.35-.53,.91-.64,1.48-.72,1.22-.25,1.25,.86,1.55,1.47,.69,1.41,2.08,2.02,3.47,1.45,.46-.19,.53-.87,1.14-.79,.63-1.21,.61-2.42,.02-3.64-.74,.12-1.15-.46-1.68-.77-.43-.25-.87-.47-1.31-.71-.5-.24-1.1-.28-1.49-.75-1.32-.7-2.46-1.55-2.51-3.22-.36-.51-.36-1.01,.01-1.52,.15-1.55,1.34-2.95,2.76-3.22,1.5-.75,3.01-1,4.5,.02,.16,0,.31,.02,.47,.02,.34,.15,.63,.37,.86,.65,.31,.35,.71,.62,.9,1.07,.41,.96-.19,1.28-.97,1.49-.51,.36-1.01,.35-1.51-.02-.17-.16-.34-.32-.51-.48-.39-.81-1.13-.73-1.82-.64-.47,.06-.94,.2-1.38,.41Z"/>
  <path class="cls-205" d="M81.22,7.67c-.07,.02-.15,.03-.22,.05-.93,.91-.96,1.9-.24,2.95,.15,0,.31,.02,.46,.03,.36,.21,.72,.42,1.02,.71,.23,.01,.47,.02,.7,.03,.56,.15,1.17,.19,1.52,.75,1.02,.29,1.49,1.36,2.46,1.73,.61,.32,.62,.94,.78,1.49,.01,.23,.02,.47,.03,.7,.43,.58,.43,1.16,0,1.74-.08,1.2-.33,2.32-1.53,2.95-.27,.33-.73,.4-.99,.74-1.62,1.37-3.47,.98-5.21,.49-1.56-.44-2.81-1.4-3.05-3.19,.2-.42,.2-.89,.28-1.34,.1-.61,.64-.47,1.03-.6,.23-.01,.46-.02,.69-.03,.55,.09,.87,.25,.93,.97,.15,1.71,2.2,2.56,3.64,1.56,.29-.2,.66-.09,.9-.34,.02-.15,.05-.3,.07-.45,.59-.87,.42-1.81,.23-2.75-.87-1.33-2.42-1.43-3.71-2.02-.32-.09-.54-.34-.79-.54-.82-.47-1.43-1.17-2.06-1.85-.79-.81-.99-3.37-.32-4.25,.17-.22,.43-.39,.44-.71,.58-.39,1.09-.89,1.71-1.25,1.1-.84,2.4-.71,3.67-.74,.31,.22,.61,.46,.99,.57,.52,.21,.87,.61,1.26,.98,1.3,1.23,1.31,1.39-.07,2.55-.49,.16-.96,.21-1.34-.23-.02-.22-.04-.43-.07-.65-1.07-.46-2.14-.73-3.23-.08Z"/>
  <path class="cls-149" d="M210.26,11.16c.4,.5,1.19,.2,1.63,.91,.25,.41,.45-.33,.45-.63,.03-2.08,.02-4.17,.04-6.25,0-.48-.11-.98,.12-1.45,.75-.48,1.51-.49,2.25,.02h0c.41,.43,.37,.98,.37,1.51,0,4.96,0,9.92,0,14.89,0,.49,.03,.99-.28,1.42-.8,.51-1.61,.46-2.42,.02-.22-.01-.44-.03-.66-.04-.29,.31-.74,.39-1.01,.73-.9,.01-1.8-.02-2.69,.05-.84,.07-1.5-.19-2.03-.82-.57-.74-1.41-1.27-1.72-2.2-.28-.72-.43-1.47-.5-2.24v-1.66c.09-.57,.21-1.13,.69-1.53,.52-1.3,1.63-2.02,2.75-2.72,1-.24,2.01-.06,3.01,0Z"/>
  <path class="cls-205" d="M56.74,19.58c0,.2,.02,.41-.2,.54-.26,.34-.12,.91-.65,1.1-.78,.88-1.69,.85-2.67,.39-.18-.28-.15-.54,.03-.81-.27-.93,.88-1.33,.82-2.18,.15-.39,.4-.73,.69-1.03-.23-.9,.89-1.31,.79-2.16,.13-.57,.16-1.18,.76-1.51,.05-.01,.1-.03,.15-.05,.56-.35,.58-.97,.76-1.51,.49-1.7,1.26-3.28,2.22-4.77,.1-.15,.07-.39,.1-.59,.3-.29,.4-.73,.7-1.02,.01-.16,.02-.31,.04-.47,.86-.78,1.2-.72,1.59,.26,.27,.72,.83,1.31,.93,2.1,.53,.3,.53,.86,.67,1.35,.36,1.29,1.3,2.34,1.54,3.67,.29,.3,.38,.75,.72,1.02,.44,.97,.82,1.96,1.34,2.89,.15,.27,.21,.49,.19,.76,.23,1.07,.74,2.02,1.27,2.94,.5,.87,.39,1.28-.63,1.38-.64,.06-1.32,.17-1.88-.32-.04-1.09-1.11-1.82-1.06-2.95-.23-.32-.59-.47-.95-.52-1.97-.25-3.96-.21-5.93-.05-.83,.07-1.22,.76-1.38,1.54Z"/>
  <path class="cls-148" d="M139.16,12.91c1.79-1.67,3.7-2.83,6.22-1.5,.3,.25,.82,.03,1.03,.48,.4,.43,.8,.85,1.25,1.22h-.01c.08,.65,.48,1.15,.83,1.66,.27,2.38,.22,2.44-2.26,2.44-1.36,0-2.72-.04-4.08,.02-.98,.05-1.13,.32-.77,1.15,.13,.14,.21,.31,.26,.49,.06,.48,.11,.99,.81,.92,.17,.03,.33,.08,.47,.18,.55,.65,1.09,.76,1.64,0,.58-.52,1.11-1.08,1.72-1.56,.8-.09,1.48,.11,2,.77,.22,.28,.32,.54,.08,.85-1.47,1.59-3.16,2.59-5.48,2.33-2.23-.25-3.84-1.36-4.37-3.53-.38-1.54-.4-3.15,.12-4.7,.11-.44,.25-.87,.55-1.22Z"/>
  <path class="cls-233" d="M122.91,22.05c-1.04,.61-2.16,.21-3.24,.24-.27-.34-.72-.42-1.02-.72-1.06,.06-1.5-.5-1.49-1.49-.3-.3-.53-.63-.69-1.02-.03-.23-.06-.47-.08-.7-.49-.68-.29-1.46-.32-2.21,0-.53-.04-1.08,.35-1.52-.19-1.08,.88-1.48,1.23-2.27,.53-.17,.76-.76,1.31-.9,.23-.02,.47-.03,.7-.05,1-.55,2.01-.53,3.01-.01h0c.2,.27,.54,.05,.78,.21,.64,.8,1.21,.49,1.77-.11,.13-.07,.25-.11,.39-.13,1.06-.1,1.4,.49,1.4,1.41,0,2.54,.03,5.07,0,7.61-.02,1.27-.27,1.43-1.96,1.57-.71,.07-1.44-.27-2.14,.08Z"/>
  <path class="cls-149" d="M223.28,18.53c.17-1.04-.54-2.08,0-3.12,.08-.58,.22-1.12,.69-1.52,.31-.84,.83-1.47,1.73-1.74,.41-.46,.98-.57,1.53-.72l-.02-.02c1-.62,2.1-.27,3.16-.32,.32,.01,.61,.12,.85,.33v.02c.54,.14,1.13,.2,1.46,.76v.02c.36,.22,.42,.71,.79,.93,.12,.5,.85,.6,.78,1.21,.13,.33,.31,.65,.3,1.03,.04,.77,.02,1.54,0,2.31,0,.27,0,.55-.02,.82,0,.6-.31,1.01-.79,1.32,.14,.89-.74,1.44-1.15,1.55-.73,.2-1.16,.83-1.87,.94-1.17,.18-2.34,.42-3.52,0-.8-.44-1.82-.54-2.31-1.46-.3-.51-.85-.81-1.13-1.34-.3-.27-.42-.63-.5-1.01Z"/>
  <path class="cls-48" d="M110.93,18.34l.03-6.64c.72-.95,1.56-.76,2.43-.25h0c.06,.06,.15,.12,.16,.18,.35,2.24,.51,4.49-.09,6.72-.03,.48-.05,.96-.08,1.44-.18,.38-.37,.74-.74,.98-.25,.25-.51,.49-.76,.74-.23,.37-.71,.43-.96,.78-1.24,.04-2.49,.16-3.73-.01-.28-.33-.73-.41-1.03-.71-1.07,.07-1.48-.51-1.48-1.49-.41-.5-.61-1.06-.61-1.71,0-1.98,0-3.96,0-5.93,0-.52,.05-.99,.61-1.23,.31-.13,.64-.16,.97-.14,.9,.05,1.43,.39,1.42,1.43-.02,2.04-.13,4.09,.07,6.13-.11,.91,.37,1.42,1.22,1.36,.63-.04,1.59,.56,1.84-.63,.3-.3,.41-.73,.72-1.03Z"/>
  <path class="cls-229" d="M10.39,3.76c-.16,1.34,1.15,1.66,1.81,2.34,2.25,2.31,4.57,4.57,6.91,6.79,2.54,2.41,4.97,4.92,7.51,7.32,2.23,2.11,4.28,4.45,6.5,6.57,2,1.9,3.9,3.91,5.95,5.77,1.72,1.56,3.4,3.25,4.89,5.07,.25,.3,.89,.16,.83,.76,.38,.23,1.27,.07,.77,.98-.24,0-.48,0-.73,0-.09,.13-.19,.15-.31,.04-1.19-.64-1.92-1.79-2.89-2.66-1.78-1.59-3.36-3.39-5.06-5.07-1.72-1.72-3.4-3.49-5.17-5.15-1.48-1.39-2.96-2.8-4.37-4.24-1.67-1.71-3.4-3.37-5.05-5.11-1.6-1.68-3.33-3.27-5.02-4.89-1.98-1.89-3.91-3.83-5.8-5.81-.57-.59-1.62-.84-1.57-1.94,.02-.27,.03-.55,.05-.82,.26-.18,.51-.17,.75,.05Z"/>
  <path class="cls-233" d="M200.78,20.08c-.23,.75-.51,1.46-1.48,1.5-.3,.29-.76,.38-1.02,.72-.94,.01-1.88-.02-2.81,.05-.82,.07-1.4-.25-1.91-.82-.52-.46-.84-1.11-1.46-1.47-.02-.24-.04-.48-.06-.72-.22-.25-.31-.54-.33-.86-.07-1.88-.02-3.75-.03-5.63,0-.55,.08-1.06,.53-1.44,.84-.44,1.64-.61,2.31,.29,0,1.77,.06,3.54-.02,5.31-.1,2.12,.58,3.38,2.99,3.05,1.06-.64,1.34-1.71,1.4-2.8,.08-1.47,0-2.95,.03-4.43,.02-.74,.15-1.44,1.14-1.42,.99,.02,1.07,.74,1.08,1.47,.01,1.89,.03,3.77,0,5.66,0,.54,.05,1.1-.35,1.55Z"/>
  <path class="cls-11" d="M217.98,40.14c-1.29-.97-2.59-1.9-3.28-3.48-.23-.51-.69-1.14-1.44-1.26-.11-.45-.37-.74-.86-.64-.48,.1-.27,.53-.28,.81-.03,1.09,0,2.19-.02,3.29-.01,.51,.06,1.08-.48,1.43-1.37,.16-1.47,.09-1.47-1.18,0-2.46-.01-4.91,0-7.37,0-.38-.23-.97,.28-1.07,.54-.11,1.13,.1,1.32,.78,.94,.69,1.76,1.42,2.35,2.5,.5,.93,1.35,1.72,2.38,2.21,.68,.26,.91-.04,.91-.68,0-1.07,0-2.13,0-3.2,0-.41,0-.83,.21-1.2,.22-.38,.54-.64,1.02-.53,.45,.1,.74,.34,.75,.84,0,2.75,.05,5.5-.02,8.25-.03,.95-.73,.79-1.36,.49Z"/>
  <path class="cls-225" d="M188.26,7.75c.02,.97,.04,1.95,.06,2.92,.37,.61,1.23,.26,1.63,.83,.24,.52,.23,1.04,0,1.56-.39,.59-1.27,.24-1.65,.85,0,2.46-.05,4.92-.01,7.38,.02,.9-.34,1.08-1.16,1.04-.74-.04-1.34,.04-1.31-1.03,.05-2.46-.02-4.92-.03-7.37-1.13-.4-1.22-.63-.94-2.31,.18-.44,.68-.56,.94-.93,.02-.97,.05-1.94,.07-2.91,.8-.6,1.6-.58,2.4-.02Z"/>
  <path class="cls-134" d="M94.9,40.39c-.27-.22-.59-.3-.93-.29-.26-.34-.73-.42-1-.74-.25-.24-.51-.49-.76-.73-.3-.3-.56-.64-.7-1.05,0-.86,.05-1.72-.04-2.57-.14-1.41,.24-2.55,1.48-3.34,.61-.29,1.03-.91,1.76-.96,.68,.16,.99-.6,1.7-.6,.86,0,1.48,.52,2.25,.63,1.11,.11,1.7,.9,2.27,1.71,.25,.49,.86,.8,.78,1.47,.53,.99,.51,1.99,.02,2.99-.21,1.54-1.96,3.17-3.74,3.47-1.03,.1-2.06,.2-3.1,0Z"/>
  <path class="cls-256" d="M69.02,36.9c-.02,.23-.04,.46-.07,.69-.07,.28-.27,.47-.5,.63-.41,.37-.67,.9-1.19,1.16-.6,.43-1.11,1.05-1.96,1-.84,.18-1.69,.05-2.54,.06-.37,0-.72-.08-1.02-.31-1.11-.12-2.41-1.35-2.74-2.4-.38-1.21-.25-2.43-.2-3.64,.07-1.87,1.63-2.55,2.98-3.35,1.29-.91,2.78-.93,3.99-.06l-.03,.05c.71-.01,1.09,.52,1.55,.91,.35,.48,.81,.86,1.24,1.26,.44,.22,.24,.71,.45,1.03h0c.57,.98,.54,1.97,.02,2.96Z"/>
  <path class="cls-128" d="M106.43,32.45c1.2,1.23,2.4,2.45,3.59,3.69,.33,.34,.61,.35,.9-.03,.33-1.52,.06-3.05,.14-4.58,.02-.45,.15-.8,.6-.95,.44-.15,.81-.07,1,.41,0,2.75,0,5.5-.01,8.25,0,.41,0,.83-.08,1.22-.09,.45-.37,.46-.66,.15-1.07-1.15-2.14-2.32-3.21-3.48-.31-.28-.39-.74-.79-.95-.19-.4-.6-.55-.92-.82-.19-.22-.38-.43-.57-.65-.21-.37-.53-.51-.94-.39-.48,.15-.4,.57-.4,.92-.03,1.15,0,2.29-.02,3.44-.01,.52,.07,1.08-.38,1.5-.86,.22-1.03-.37-1.05-.97-.07-2.54-.05-5.09,0-7.63,0-.41,.07-.84,.55-1.02,.43-.16,.71,.14,.97,.4,.46,.46,1,.86,1.32,1.46Z"/>
  <path class="cls-148" d="M85.98,30.69c2.16-.09,4.06,2.74,3.99,4.58-.02,.53-.03,1.07-.04,1.6-.3,.3-.4,.73-.69,1.03-.34,1.42-1.32,2.16-2.97,2.24-1.35,.49-2.7,.56-4.04-.04-.1-3.12-.14-6.24,.02-9.36,1.23-.64,2.48-.57,3.73-.05Z"/>
  <path class="cls-205" d="M179.1,35.84c-.48-.46-.95-1.43-1.49-1.23-.67,.25-.24,1.25-.28,1.91-.07,1.18-.04,2.37-.05,3.56-.48,.41-.97,.39-1.46,.02-.02-2.9-.05-5.81-.07-8.71,0-.29-.04-.59,.27-.76,.38-.21,.53,.18,.67,.35,1.54,1.89,3.49,3.37,5.14,5.15,.33,.21,.62,.65,1.07,.42,.43-.23,.29-.72,.3-1.11,.03-1.22-.07-2.45,.06-3.66,.08-.69,.28-1.4,1.23-.69,.39,1.17,.15,2.36,.18,3.54,.04,1.48,.05,2.96,0,4.43-.02,.65-.08,1.41-1.13,1.09-.56-.52-1.13-1.03-1.69-1.55-.69-.4-.96-1.18-1.59-1.63-.34-.41-.88-.63-1.15-1.12Z"/>
  <path class="cls-220" d="M132.86,11.47c.11,.24,.31,.22,.53,.19,.76-.47,1.6-.34,2.42-.31,.58,.02,1.06,.2,1.03,.93-.02,.71-.24,1.19-1.07,1.16-.73-.02-1.5-.16-2.12,.39-.71,.57-.71,1.39-.73,2.16-.04,1.63-.07,3.27,0,4.9,.05,1.06-.21,1.62-1.39,1.4-.28-.05-.58-.01-.86-.01-.53-.49-.62-1.13-.62-1.8,0-2.5-.02-5.01,0-7.51,.02-1.8,1.18-2.41,2.82-1.52Z"/>
  <path class="cls-256" d="M174.02,40.82c-.77,.06-1.34-.21-1.42-1.03-.06-.55-.62-.7-.78-1.15-1.49-.75-2.99-.52-4.48,0,.03,.63-.65,.91-.76,1.48-1,.29-1.12,.2-1.03-.78-.05-1.04,.62-1.88,.83-2.85,.07-.29,.26-.49,.49-.65,.44-.31,.6-.82,.93-1.21-.19-1.16,1.06-1.82,1.02-2.92,.36-.25,.57-.61,.75-.99h0c.37-.26,.57-.03,.74,.27l1.74,3.97c.73,.8,1.25,1.71,1.4,2.79,.26,.45-.02,1.14,.62,1.43,.08,.07,.16,.15,.22,.24h0c.43,.57,.17,1.01-.28,1.42Z"/>
  <path class="cls-216" d="M220.96,39.35c-.24-.92,.89-1.33,.81-2.19,.19-.37,.4-.73,.72-1.01,.01-.16,.02-.31,.04-.47,.11-.26,.29-.47,.52-.64,.35-.67,.55-1.41,1.07-1.98-.13-.94,.82-1.5,.85-2.38,.19-.4,.37-.37,.52,.02,.4,.27,.66,.67,.96,1.02-.02,1.11,1.03,1.84,1.06,2.93,.47,.49,.87,1,.73,1.74,.15,.18,.3,.36,.45,.54,.23,.58,.27,1.21,.77,1.72,.29,.3,.38,.93,.09,1.38-.31,.47-.82,.48-1.33,.34-.25-.57-.5-1.15-.76-1.72-1.4-.68-2.81-.66-4.23-.03-.42,.04-.53,.38-.55,.69-.07,.91-.63,1.13-1.41,1.1-.71-.18-.53-.61-.3-1.06Z"/>
  <path class="cls-126" d="M72.98,31.96c.09,.08,.17,.17,.26,.25,.41,.32,.83,.64,1.2,1.01,1,1.18,2.14,2.21,3.3,3.23,.35-.13-.31,.73,.35,.34,.52-.31,.53-.77,.54-1.27,.01-1.22-.07-2.45,.05-3.67,.06-.61,.12-1.48,1.17-.8,.04,2.74,0,5.48,.01,8.23,0,.4,.1,.84-.36,1.09-1.22-.21-1.62-1.41-2.5-2.04-.41-.3-.69-.77-1.03-1.16-.14-.42-.44-.72-.77-.99-.2-.39-.59-.56-.94-.77-.25-.24-.51-.48-.76-.73-.23-.35-.52-.51-.94-.3-.39,1.33-.08,2.69-.18,4.04-.04,.6,.1,1.25-.37,1.77-.32,.14-.61,.12-.86-.13-.22-.32-.25-.69-.25-1.06,0-2.37-.04-4.74,.02-7.11,.01-.61-.13-1.57,1.09-1.18l-.02,.02c.35,.4,.67,.81,1,1.22Z"/>
  <path class="cls-256" d="M162.63,31.67c1.24,.44,.45,1.49,.68,2.23-.05,.52-.48,1.03-.02,1.55,.34,.44,.88,.77,.83,1.43,.39,.59,.43,1.16-.07,1.72-.22,.22-.65,.45-.64,.65,.05,1.06-.72,.8-1.29,.87-1.17,.54-2.36,.49-3.55,.06-.2-.22-.31-.5-.31-.79,0-2.71-.15-5.42,.07-8.13,.05-.15,.13-.28,.24-.39,1.48-.38,2.94-.63,4.06,.79Z"/>
  <path class="cls-38" d="M143.85,31.74c0,.08-.03,.19,0,.24,1.26,1.84-.02,3.06-1.15,4.2-.46,.46-.52,.45-.02,.91,.68,.64,1.16,1.49,1.73,2.24,0,1.15-.27,1.28-1.51,.75-.85-.5-1.47-1.16-1.54-2.19-.28-.24-.62-.35-.98-.41-.55,.86,.33,2.04-.68,2.78-.3,.04-.57,0-.74-.29-.4-1.41-.13-2.84-.19-4.26-.04-1.14-.02-2.29,0-3.43,.03-1.38,.29-1.64,1.68-1.66,.53-.01,1.07-.06,1.58,.16,.78-.01,1.36,.36,1.82,.96Z"/>
  <path class="cls-200" d="M152.32,35.44c-.49-.24-.75-.87-1.42-.81-.77-1.72-.22-3.08,1.17-4.21,1.16-.55,2.24-.45,2.79,.27,.15,.02,.29,.04,.44,.06,.5,.18,.73,.63,1.01,1.02,.05,.51-.24,.68-.69,.69-.34,.25-.68,.25-1.01,0-.58-.57-1.28-.77-1.98-.35-.54,.33-.43,1.16-.21,1.44,.51,.64,1.25,1.15,2.18,1.15,.83,.48,1.44,1.19,1.99,1.95,.14,.69,.24,1.37-.22,1.99-.21,.77-.54,1.43-1.47,1.5-.99,.52-2.03,.41-3.07,.25-.69-.23-.99-.9-1.48-1.36-.28-.27-.6-.88-.07-1.15,.39-.2,.92-.62,1.47,.15,.5,.7,1.04,1.91,2.37,1.11,1.5-.85,1.17-2.33-.35-2.94-.32-.55-.87-.67-1.45-.74Z"/>
  <path class="cls-107" d="M45.56,39.35c.2-.68-.54-.63-.77-.98,.99,.05,.74-.69,.74-1.21,.01-4.57,0-9.14,0-13.71,0-5.68,0-11.37,0-17.05,0-.49-.07-.99,.26-1.43,.5,.24,.49,.69,.49,1.16,0,10.78,0,21.56,0,32.34,0,.5,.07,1.04-.73,.89Z"/>
  <path class="cls-174" d="M10.39,3.76c-.25-.02-.5-.03-.75-.05,.02-.31-.08-.69,.46-.67,.33,.01,.66-.03,1-.03,10.6,0,21.2,0,31.8,0,.49,0,1.13-.24,1.35,.52-.36,.28-.78,.22-1.19,.22-10.89,0-21.78,0-32.67,0Z"/>
  <path class="cls-94" d="M44.52,39.4c.1-.01,.21-.02,.31-.04,.4,1.43-.38,1.53-1.55,1.53-10.34-.03-20.68-.02-31.02-.03-.59,0-1.28,.19-1.68-.49,.42-.37,.93-.27,1.42-.27,10.39,0,20.78,0,31.17-.02,.48,0,1.38,.45,1.34-.69Z"/>
  <path class="cls-200" d="M257.63,36.19c.03,.82,.05,1.63,.08,2.45-.13,.74-.49,1.28-1.26,1.48-1.06,.59-2.18,.34-3.29,.26-.82-.65-1.8-1.19-1.68-2.46,1-.58,1.63,0,2.24,.69,.2,.77,.83,.71,1.42,.73,.34-.26,.8-.36,1-.79,.6-.81,.52-1.66-.35-2.21-.39-.25-.74-.65-1.25-.7-.28-.15-.61-.03-.88-.18-.35-.64-1.52-.48-1.49-1.5-.41-.59-.41-1.17,0-1.76,.01-.16,.03-.31,.04-.47,.37-.51,.81-.91,1.46-1.02,.67-.82,1.48-.61,2.24-.23,.25,.12,.43,.34,.74,.28,.45,.17,.63,.55,.77,.97-.27,.78-.48,.91-1.26,.78-.81-.65-1.61-.79-2.4,.01,.17,.51-.46,1.38,.68,1.44,.28,.32,.72,.42,1.03,.7,1.11-.02,1.4,1.1,2.18,1.54Z"/>
  <path class="cls-48" d="M135.39,34.91c0,.08,.02,.16,.03,.24,1.1,1.3,1.21,2.7,.47,4.2-.4,.26-.64,.78-1.21,.78-1.19,.51-2.39,.51-3.59,.02-.35-.47-.28-1.02-.28-1.54-.01-1.89,0-3.77,0-5.66,0-2.31,.24-2.52,2.61-2.25,1.02,.16,1.79,.61,2.06,1.68,.04,.84,.1,1.69-.07,2.53Z"/>
  <path class="cls-10" d="M146.34,40.36c-.07-.13-.21-.26-.21-.4,0-3.06,.03-6.12,.04-9.18,.71-.62,1.43-.57,2.15-.03,.17,3.12,.22,6.23-.03,9.35-.28,.22-.55,.21-.8-.05-.36-.61-.24-1.28-.25-1.93-.02-2.01,0-4.02-.01-5.78-.13,2.41,.2,5.09-.16,7.75-.17,.31-.39,.47-.74,.27Z"/>
  <path class="cls-114" d="M214.71,21.55c.01-5.93,.03-11.86,.04-17.79,.64-.11,.76,.23,.76,.77-.01,5.61-.01,11.22,0,16.84,0,.53-.03,1.02-.78,.91-.19-.24-.18-.48-.02-.73Z"/>
  <path class="cls-183" d="M55.81,38.57c.49,.04,.98,.13,1.47,.1,.56-.04,.7,.29,.83,.69-.1,.12-.21,.2-.35,.25-.12,.04-.24,.07-.36,.08-2.45,.21-2.72-.05-2.74-2.5-.01-1.68,.06-3.37-.15-5.05-.11,1.38-.07,2.76-.11,4.15-.03,1.27,.16,2.55-.15,3.81-.17,.3-.38,.47-.74,.27-.23-.11-.22-.32-.22-.52,.02-3.02,.03-6.04,.05-9.06,.71-.62,1.43-.55,2.16-.04h0c.33,2.12,.05,4.27,.16,6.42,.02,.47-.16,.97,.15,1.42Z"/>
  <path class="cls-129" d="M106.43,32.45c-.74-.23-1.1-.9-1.59-1.41-.18-.19-.34-.37-.62-.27-.3,.11-.26,.39-.26,.62,0,2.71,0,5.41,0,8.12,0,.54,.2,.76,.75,.62,.4-.33,.37-.79,.37-1.25,0-1.02-.04-2.05,.02-3.07,.03-.44-.11-1.03,.61-1.13,0,1.68,0,3.37,.02,5.05,.01,.77-.16,1.26-1.1,1.18-.78-.06-1.46-.04-1.44-1.16,.05-2.96,.05-5.92,0-8.88-.02-.97,.71-1.18,1.16-.85,.85,.62,1.99,1.12,2.1,2.41Z"/>
  <path class="cls-79" d="M200.82,18.63c0-2-.03-4.01-.02-6.01,0-.53-.02-.96-.76-.97-.73,0-.78,.4-.78,.95,.01,1.43-.12,2.88,.04,4.29,.13,1.18-.75,1.91-.95,2.92-.07,.36-.53,.29-.86,.24,.1-.64,1.12-.83,.84-1.66,.19-1.76,.05-3.52,.08-5.29,.03-2.01,1.22-2.65,3.08-1.63,0,2.29,0,4.58,.01,6.86-.15,.28-.31,.5-.68,.29Z"/>
  <path class="cls-68" d="M187.55,40.8c-.89,.08-.89-.63-.9-1.14-.04-2.7,.01-5.4-.04-8.1-.02-.94,.86-1.23,1.25-1.23,1.66,0,3.44-.66,4.94,.63,.24,.57-.09,.64-.53,.61-1.28-.47-2.6-.23-3.91-.18-.61,.02-.67,.54-.66,1,.02,2.53-.12,5.06,.09,7.59,.03,.3,0,.59-.22,.82Z"/>
  <path class="cls-117" d="M146.15,18.61c-.3,.71-.83,1.17-1.53,1.46-.58,.44-1.16,.44-1.75,0-.15-.01-.3-.02-.44-.04-.5-.16-.79-.55-1.05-.96,0-.16-.02-.31-.02-.47-.32-.56-.09-1.09,.43-1.16,1.71-.22,3.48-.68,5.09,.42,0,.14,0,.27,0,.41-.12,.37-.58,.03-.73,.34Z"/>
  <path class="cls-121" d="M132.86,11.47c-2.4-.05-2.44-.05-2.39,2.38,.06,2.82-.23,5.64,.19,8.45-.66,.1-.99-.12-.99-.85,.02-3.08-.04-6.17,.04-9.25,.02-.82,.61-1.53,1.53-1.47,.56,.04,1.65-.68,1.62,.74Z"/>
  <path class="cls-240" d="M124.63,21.82q2.02-.56,2.02-2.65c0-2.02-.08-4.04,.03-6.05,.07-1.24-.39-1.63-1.54-1.46-.06-.16-.02-.28,.12-.37,.73-.25,1.44-.38,2.09,.19,.01,3.17,0,6.33,.07,9.5,.02,1.04-.23,1.52-1.35,1.37-.48-.07-.99,.05-1.42-.26-.05-.05-.07-.11-.06-.16,.01-.06,.02-.09,.04-.09Z"/>
  <path class="cls-53" d="M200.81,28.52c1.22-.25,1.52,.26,1.49,1.44-.08,3.62-.04,7.24-.05,10.87-.28,.24-.56,.24-.83-.02-.33-.52-.25-1.1-.26-1.67,0-2.77,0-5.55,0-8.32,0-.52,.1-1.08-.41-1.46-.17-.29-.19-.58,.06-.84Z"/>
  <path class="cls-58" d="M220.23,22.27c-2.79,.13-2.36,.28-2.4-2.12-.04-2.47-.01-4.93,0-7.4,0-.44-.11-.91,.17-1.32,.71-.48,1.44-.45,2.19-.1,.12,.12,.13,.25,.05,.39-1.14,.3-1.46,1.04-1.4,2.18,.1,1.84,.09,3.68,0,5.52-.05,1.1,.26,1.81,1.39,2.05,.22,.27,.23,.53,0,.8Z"/>
  <path class="cls-10" d="M121.42,28.81c.79-.52,1.29-.47,1.28,.63-.02,3.8-.03,7.6-.05,11.39-.29,.22-.57,.23-.84-.02-.34-.52-.26-1.1-.26-1.67,0-2.82,0-5.63,0-8.45,0-.49,.06-.98-.14-1.45-.06-.15-.05-.3,.01-.44Z"/>
  <path class="cls-15" d="M121.42,28.81l.03,.25c.2,3.67,.06,7.35,.07,11.03,0,.25-.08,.48-.22,.7-.27,.28-.56,.28-.85,.04,0-3.83-.01-7.66-.03-11.49,0-.88,.32-1.02,1.01-.53Z"/>
  <path class="cls-52" d="M217.98,40.14c.97,.1,1.26-.32,1.23-1.28-.07-2.3-.04-4.61-.01-6.91,0-.62-.14-1.1-.8-1.15-.83-.06-.6,.62-.6,1.06-.03,1.23,.02,2.47-.02,3.7-.01,.45,.29,1.1-.28,1.32-.46,.18-.63-.53-1.03-.71,.58-.08,.55-.5,.55-.92,0-1.11,0-2.23,0-3.34,0-.5,.01-.94,.52-1.28,.39-.26,.57-.8,1.22-.53,.67,.27,.77,.77,.77,1.39-.01,2.51,0,5.03,0,7.54,0,.33,0,.66,0,.99-.01,.4,.07,.89-.57,.87-.5-.01-1.06,.02-.97-.75Z"/>
  <path class="cls-215" d="M200.81,28.52v.72c.25,.29,.33,.65,.33,1.03,0,3.29,.03,6.57-.01,9.86,0,.16-.06,.32-.11,.48-.07,.15-.17,.27-.32,.35-.59-.05-.7-.4-.7-.93,.02-3.53,.02-7.06,.02-10.6,0-.53,.05-1.02,.8-.9Z"/>
  <path class="cls-81" d="M71.99,30.72c-.75-.1-.76,.37-.75,.91,.02,2.82,.02,5.64,.03,8.46,0,.44-.23,.44-.54,.27-.25-.16-.23-.42-.23-.66,0-2.95,0-5.9,0-8.85,0-.52,.1-.86,.73-.87,.55,0,.92,.07,.77,.74Z"/>
  <path class="cls-19" d="M56.74,19.58c-.23-.75,.45-1.91,1.2-1.92,1.98-.03,3.96-.04,5.93,.02,.52,.01,1.24,.04,1.13,.93-2.35-.22-4.7,0-7.04-.13-.94-.05-.54,1.05-1.22,1.11Z"/>
  <path class="cls-60" d="M220.2,11.7c.01-.07,.02-.15,.02-.22,.24-.26,.47-.27,.71,0,.02,3.35,.03,6.7,.06,10.04,0,.54-.11,.88-.75,.74,0-.24-.02-.49-.03-.73-.34-.37-.35-.83-.35-1.28-.02-2.43-.02-4.85,0-7.28,0-.45,.01-.91,.35-1.28Z"/>
  <path class="cls-104" d="M183.53,40.15c.67,.08,.81-.25,.81-.86-.04-2.77-.03-5.55-.04-8.33-.06-.06-.08-.13-.06-.2,.02-.07,.04-.1,.05-.1,.33-.1,.52,.16,.77,.29,0,3.02,0,6.05,.03,9.07,0,.55-.15,.82-.75,.85-.58,.03-.87-.12-.8-.73Z"/>
  <path class="cls-88" d="M218.79,5.28c.86-.09,1.73-.05,2.11,.85,.37,.87,.05,1.66-.67,2.28-.41,.42-.89,.4-1.39,.2-.76-.56-1.33-1.2-1.09-2.24,.2-.5,.51-.9,1.04-1.09Z"/>
  <path class="cls-80" d="M142.39,30.95c-1.02,.13-2.35-.44-3.01,.23-.7,.71-.22,2.04-.24,3.09-.04,1.94,0,3.87,0,5.81-.29,.25-.58,.26-.85-.04-.08-2.91-.01-5.82-.03-8.73,0-.21-.01-.41,.17-.56h0c1.23-.68,2.46-.51,3.7-.04,.06,.04,.13,.05,.2,.04,.1,.02,.14,.06,.13,.11-.02,.06-.04,.09-.07,.09Z"/>
  <path class="cls-227" d="M146.88,17.86c-1.49-.31-3-.14-4.51-.21-.74-.03-1.07,.23-1.01,.96-.51,.03-.74-.17-.73-.71,0-.56,.27-.87,.78-.9,.98-.06,1.97-.07,2.96-.09,.62-.01,1.24,0,1.85,0q2.24,0,2.09-2.24c-.15-.27-.17-.53,.06-.77,.38,.43,.1,1,.32,1.47,.42,.53,.74,1.04,.37,1.77-.37,.73-1,.57-1.6,.59-.2,0-.41-.03-.57,.13h0Z"/>
  <path class="cls-238" d="M238.98,40.81c-.64,.07-.77-.32-.77-.82,0-2.86,0-5.73-.02-8.59,0-.55,.29-.71,.78-.68,.12,.11,.2,.24,.26,.39,.22,2.94,.08,5.89,.08,8.84-.02,.32-.07,.63-.32,.86Z"/>
  <path class="cls-94" d="M158.56,30.93c.02,3.06,.03,6.11,.05,9.17,0,.45-.24,.42-.54,.28-.37-.22-.23-.59-.23-.89,0-2.84,0-5.68,.01-8.52,.23-.19,.47-.21,.71-.03Z"/>
  <path class="cls-53" d="M239.01,30.97c-.01-.08-.03-.17-.04-.25,0,0-.01-.01-.01-.01,.5-.35,.99-.42,1.46,.06,.03,2.53,.06,5.06,.09,7.59,.16,.37,.29,.74-.05,1.08-1.07,.27-1.07-.53-1.08-1.16-.06-1.97-.01-3.94-.03-5.92,0-.48,.09-1-.33-1.39Z"/>
  <path class="cls-155" d="M70.56,17.59c-.16-.49-.1-.98-.04-1.47,1.34-.69,2.77-.47,4.11-.2,.89,.18,.78,1.02,.38,1.71h0c-1.49,.12-2.98,.2-4.46-.04Z"/>
  <path class="cls-130" d="M184.3,30.71c0,.09,0,.17,0,.26-.67-.15-.75,.24-.75,.76,.02,1.39,.03,2.78,0,4.17-.01,.42,.3,1.04-.47,1.19-.79,.16-1.11-.3-1.24-.98,.64,.2,.99,.1,.97-.7-.03-1.55,.03-3.1,.05-4.65,.46-.47,.95-.47,1.45-.06Z"/>
  <path class="cls-199" d="M232.99,40.36c-.83,.74-1.35,.67-1.8-.24-.21-2.88-.04-5.76-.09-8.63,0-.36,.06-.67,.54-.61,.56,.42,.4,1.03,.42,1.58,.07,2.32-.11,4.65,.1,6.96,.11,.23,.3,.38,.52,.51,.16,.11,.27,.24,.3,.43Z"/>
  <path class="cls-94" d="M189.07,33.9c.95,.01,1.9,.05,2.85,.03,.79-.01,.99,.52,1,1.1,0,.58-.16,1.16-.95,1.17-.95,0-1.9,.01-2.85,.02-.12-.06-.19-.15-.21-.29,0-.2,.09-.35,.26-.44,.7-.32,1.51,.06,2.19-.31-.48-.34-1.02-.11-1.53-.21-.54-.1-1.11-.16-.89-.95,.04-.04,.08-.08,.13-.12Z"/>
  <path class="cls-41" d="M79.72,30.96c-.74-.06-.74,.42-.74,.95,.01,1.5-.01,3.01,0,4.51,0,.64-.36,.71-.87,.74-.7,.04-.42-.39-.39-.71,.6-.24,.52-.75,.52-1.24,.01-1.47,.03-2.95,.05-4.42,.53-.41,1.05-.7,1.42,.18Z"/>
  <path class="cls-171" d="M105.71,34.69c-.48,1.51-.12,3.05-.21,4.58-.03,.55-.05,1-.79,.87,0-1.79,.02-3.59,0-5.38-.01-.66,.29-.83,.89-.85,.63-.02,.95,.17,.83,.84-.23-.08-.46-.22-.7-.05Z"/>
  <path class="cls-150" d="M192.31,11.43c-.47,.93-.18,1.92-.22,2.88-.06,1.43-.04,2.86-.06,4.28-.37,.27-.56,.04-.71-.27,0-1.97-.01-3.94-.02-5.91,0-.49-.11-1.04,.67-1.02,.12-.09,.23-.08,.33,.04Z"/>
  <path class="cls-129" d="M96.93,22.28c-.11-.87,.65-.88,1.11-.89,.49,0,.46,.56,.46,.97,0,1.79-.01,3.58-.02,5.37-.65,.14-.77-.22-.76-.76,.02-1.26-.02-2.52,.01-3.78,.02-.6-.15-.94-.8-.91Z"/>
  <path class="cls-163" d="M211.69,40.03c0-1.73,0-3.45,.04-5.18,0-.29-.18-.72,.26-.85,.43-.13,.33,.43,.52,.51,.43,.19,.89,.26,.75,.89-.31-.19-.74-.81-.76,.17-.02,1.26,.02,2.52-.03,3.77-.02,.55,.13,1.28-.75,1.42-.2-.24-.15-.49-.03-.74Z"/>
  <path class="cls-168" d="M113.46,18.36c-.02-2.3-.05-4.6-.07-6.9,.5-.09,.8,.04,.79,.62-.02,1.89-.02,3.78-.01,5.67,0,.51-.26,.64-.7,.61Z"/>
  <path class="cls-180" d="M231.7,30.91c-.71,.12-.47,.68-.47,1.08-.03,2.71-.03,5.42-.04,8.13-.36-.33-.21-.77-.21-1.16-.01-2.41-.02-4.82,0-7.24,0-1.39,.36-1.72,1.76-1.74,.49,0,.99,.01,1.49,0,.49-.02,.81,.12,.77,.68-1.05,.72-2.18,.37-3.29,.26Z"/>
  <path class="cls-22" d="M130.68,40.81c-.41-.18-.3-.56-.3-.86-.02-2.92-.02-5.84,0-8.76,0-.52,0-1.28,.76-1.15,.84,.15,1.98-.78,2.51,.6-.05,.06-.1,.11-.15,.17q-2.6,.08-2.6,2.75c0,2.14,0,4.27,0,6.41,0,.3,.04,.61-.21,.85Z"/>
  <path class="cls-159" d="M211.69,40.03c0,.25,.02,.5,.03,.74-1.67,.22-1.73,.19-1.73-1.4-.01-2.63-.02-5.27,.02-7.9,0-.49-.33-1.39,.43-1.38,.42,0,1.37,.44,1.31,1.37-.31-.39-.76-.75-1.22-.62-.55,.17-.27,.78-.28,1.19-.03,2.24,.05,4.49-.04,6.73-.04,1.17,.31,1.61,1.48,1.27Z"/>
  <path class="cls-240" d="M133.63,13.84c.09-.96,.8-.86,1.46-.83,.29,.02,.57,.1,.85,.12,.47,.04,.67-.19,.68-.65,0-.46-.04-.83-.63-.82-.87,0-1.74,0-2.62,0,.18-.32,.42-.58,.76-.74,.83,.27,1.76-.04,2.56,.45,.54,.2,.92,.09,.56,1.12-.77,2.2-2.39,1.04-3.62,1.35Z"/>
  <path class="cls-94" d="M187.55,40.8c0-.23,0-.47,0-.7,.89-.62,1.91-.25,2.86-.34,.56-.05,1.16,.09,1.56-.47,.29-.14,.56-.13,.82,.08,.31,.95,0,1.49-1.04,1.5-1.4,0-2.8-.04-4.2-.06Z"/>
  <path class="cls-186" d="M66.06,21.55c.17,0,.33,0,.5,0,.69-.04,1.71,.33,1.98-.2,.23-.45-.39-1.39-.77-1.88-.5-.66-.54-1.22-.48-1.91,.7,1.29,1.66,2.47,1.73,4.02,0,.18,.28,.34,.03,.52-.67,.48-1.44,.16-2.16,.21-.49,.03-.92-.12-.83-.76Z"/>
  <path class="cls-91" d="M107.15,18.64c-.53-.79-.2-1.66-.26-2.5-.06-.85-.01-1.71-.01-2.56q0-2.16-2.15-2.13c-.25,.11-.5,.15-.75,0-.06-.51,.13-.71,.68-.77,2.43-.26,2.59-.15,2.58,2.31,0,1.89-.05,3.77-.08,5.66Z"/>
  <path class="cls-196" d="M201.48,11.47c-2.96-.21-2.93-.21-2.97,2.66-.02,1.42,.24,2.86-.18,4.26-.02-2.16-.07-4.33-.06-6.49,0-.67,.17-1.43,1.1-1.18,.71,.19,1.9-.78,2.11,.76Z"/>
  <path class="cls-61" d="M249.89,40.8c-1.56,.02-3.12,.02-4.68,.07-.6,.02-.81-.24-.83-.77,.06-.05,.11-.1,.17-.15,.27-.15,.57-.17,.87-.19,1.5,.08,3.02-.28,4.49,.24,.24,.27,.27,.54-.01,.8Z"/>
  <path class="cls-26" d="M244.41,30.68c0-.53,.28-.7,.79-.69,1.33,.02,2.66,.02,3.98,0,.52-.01,.77,.19,.82,.69-.05,.06-.1,.11-.15,.17-1.69,.39-3.39,.22-5.09,.11-.15-.05-.26-.15-.35-.27Z"/>
  <path class="cls-240" d="M75.02,17.64c.19-1.21-.27-1.69-1.55-1.54-.97,.11-1.96,.03-2.95,.03-.18-.63,.11-.77,.7-.75,1.32,.04,2.65,.04,3.97,.06,.6,.71,.52,1.45,.07,2.19-.08,0-.16,.01-.25,.02Z"/>
  <path class="cls-110" d="M79.72,30.96c-.41-.53-.95-.05-1.42-.18-.11-.49,0-.81,.59-.81,.47,0,.94-.03,1.06,.59,.02,.12,.06,.24,.06,.37,0,3.09,0,6.18,0,9.27,0,.53-.1,.85-.52,.17,.1-.26,.32-.45,.32-.77-.04-2.88-.06-5.76-.09-8.64Z"/>
  <path class="cls-7" d="M231.7,30.91c1.06-.51,2.2-.09,3.29-.26,.23,.03,.46,.06,.69,.09,.08,.16,.04,.28-.12,.37-.46,.24-.96,.19-1.46,.2-1.72,.04-1.78,.09-1.77,1.84,0,1.8,0,3.6,0,5.4,0,.53,.06,1.07-.33,1.52-.47-.33-.28-.82-.28-1.24-.02-2.65-.02-5.3-.02-7.94Z"/>
  <path class="cls-131" d="M240.53,39.31c0-.32-.02-.64-.03-.96,.71,.46,1.52,.16,2.27,.26,.82,.11,.9,.72,.93,1.33,.02,.48,.01,1.05-.78,.86-.16-.18-.2-.4-.22-.63-.06-.63-.58-.44-.94-.5-.43-.07-.92,.09-1.23-.36Z"/>
  <path class="cls-15" d="M53.51,40.36c.23-.01,.43-.07,.54-.29,1.3-.55,2.6-.43,3.92-.08,.27,.27,.28,.55,.03,.83-1.15,.02-2.31,.03-3.46,.05-.44,0-.82-.06-1.02-.51Z"/>
  <path class="cls-45" d="M228.22,40.37c1.45-.54,1.41-.52,.64-2.01-.21-.4-.12-.94-.16-1.42,.81,.7,.78,1.9,1.6,2.64,.26,.24,.18,1.02-.24,1.16-.6,.21-1.38,.48-1.83-.37Z"/>
  <path class="cls-223" d="M249.9,36.12c-.97,.18-1.94,.11-2.91,.05-.35,.16-.69,.29-1.06,.05-.36-.68,0-.98,.62-1.1,.6-.12,1.22-.07,1.83-.07,.46,0,.9-.02,1.22-.4,.15-.07,.28-.05,.41,.05,.3,.5,.31,.98-.13,1.42Z"/>
  <path class="cls-219" d="M135.89,39.35c-.1-.96,.15-1.91,.08-2.89-.04-.61-1.04-.65-.55-1.31,1.27,.99,1.65,2.13,1.31,3.58-.13,.53-.39,.63-.84,.62Z"/>
  <path class="cls-119" d="M84.44,19.07c-.61,.67-1.29,1.07-2.29,1-1.4-.11-2.24-.71-2.41-2.1-.07-.56-.33-.87-.78-1.09,.63-.15,1.01-.04,1.06,.74,.08,1.14,1.21,1.48,1.9,2.15,.17,.16,.77,.18,.91-.11,.38-.75,1.02-.55,1.61-.58Z"/>
  <path class="cls-68" d="M167.33,38.62c.66-.64,3.62-1.1,4.32-.65,.23,.15,.19,.42,.16,.66-1.49,0-2.99,0-4.48,0Z"/>
  <path class="cls-68" d="M223.23,38.61c0-.08-.03-.19,.02-.24,.94-1.06,2.17-.28,3.25-.49,.52-.1,.98,.08,.96,.76-1.41-.01-2.82-.02-4.23-.03Z"/>
  <path class="cls-185" d="M192.16,31.4c.36,.06,.59-.06,.63-.45,.34,.94-.11,1.39-1.01,1.45-.9,.06-1.81,.04-2.71,.06-.05-.05-.09-.11-.14-.16-.16-.68,.31-.85,.82-.89,.8-.06,1.61-.13,2.41,0Z"/>
  <path class="cls-132" d="M130.68,40.81c0-.24-.01-.47-.02-.71,.16-.14,.34-.14,.53-.04,1.16,.03,2.33,.06,3.49,.08,.04,.59-.24,.76-.81,.73-1.06-.05-2.12-.05-3.18-.06Z"/>
  <path class="cls-60" d="M242.94,40.1c0,.24-.02,.47-.02,.7-1.31,.11-2.62,.11-3.94,0,0-.24,0-.49,0-.73,1.32-.52,2.64-.55,3.96,.02Z"/>
  <path class="cls-18" d="M249.66,32.41c-.98,.02-1.96,.04-2.94,.06-.28,.18-.56,.21-.84-.01-.32-.85,.26-1.01,.88-1.07,.91-.1,1.82,0,2.73-.07,.15-.01,.29,.01,.43,.07,.34,.45,.25,.79-.26,1.03Z"/>
  <path class="cls-21" d="M249.9,34.67c-.08,0-.16,0-.24,.01-1.07,.62-2.21,.37-3.32,.22-.47-.06-.66-.44-.49-.92,.26-.3,.56-.27,.87-.1l3.15,.09c.28,.22,.26,.45,.03,.69Z"/>
  <path class="cls-199" d="M82.23,40.11c1.35,.01,2.69,.02,4.04,.04-.05,.49-.33,.72-.82,.72-.87,0-1.74-.01-2.62,.02-.6,.02-.71-.28-.59-.77Z"/>
  <path class="cls-230" d="M232.99,40.36c-.09-.1-.19-.19-.28-.29-.63-1.05-.37-2.18-.23-3.28,.06-.46,.43-.66,.92-.49,.31,.25,.28,.54,.1,.85-.01,.73-.04,1.46-.03,2.2,0,.43-.01,.82-.48,1.01Z"/>
  <path class="cls-242" d="M139.86,40.08c0-.74,0-1.48,.02-2.22,0-.36-.14-.82,.27-1,.41-.19,.42,.41,.72,.52,.24,.09,.42,.25,.48,.52-.64-.08-.72,.28-.74,.82-.01,.57,.28,1.27-.47,1.64-.25,.07-.34-.03-.29-.27Z"/>
  <path class="cls-37" d="M112.65,30.99c-1.29-.42-1.52-.25-1.57,1.02-.06,1.37,.21,2.75-.17,4.1,0-1.71-.01-3.42-.02-5.13,0-.66,.19-1.05,.99-1.03,.8,.02,.86,.44,.77,1.04Z"/>
  <path class="cls-203" d="M85.96,8.42c.81-1.24,.42-2.09-1.49-3.17,.24-.23,.5-.2,.77-.04,1.01,.28,1.56,1.13,2,1.92,.17,.3-.13,1.28-1,1.35-.11,.07-.21,.05-.28-.06Z"/>
  <path class="cls-64" d="M103.97,11.44c.25,0,.5,0,.75,0-.45,.24-.58,.61-.57,1.11,.03,1.77,.08,3.55-.02,5.31-.04,.83,.75,1.39,.54,2.21-.64,.08-.75-.3-.74-.82,.02-2.61,.03-5.22,.04-7.83Z"/>
  <path class="cls-242" d="M192.79,39.36c-.26,0-.51,.01-.77,.02-.98,.54-1.98,.47-2.98,.06-.21-.3-.23-.59,.05-.86,.95,0,1.89,.02,2.84,.03,.51,0,.9,.13,.86,.75Z"/>
  <path class="cls-69" d="M85.98,30.69c-1.24,.02-2.49,.03-3.73,.05,0-.04-.03-.09-.02-.12,.51-1.29,1.6-.46,2.41-.59,.45-.07,1.37-.48,1.33,.66Z"/>
  <path class="cls-130" d="M158.07,40.37c.22-.01,.43-.05,.54-.28,1.17,.01,2.34,.02,3.51,.04-.09,.18-.13,.41-.27,.52-.62,.47-3.16,.26-3.78-.28Z"/>
  <path class="cls-98" d="M158.56,30.93c-.24,.01-.47,.02-.71,.03,.02-.16-.02-.37,.07-.47,.67-.8,2.97-.68,3.7,.18-.99,.39-2.05-.02-3.05,.24h-.01Z"/>
  <path class="cls-14" d="M142.13,30.71c-1.23,.02-2.47,.03-3.7,.05,.02-.2-.04-.47,.07-.57,.59-.54,3.08-.16,3.63,.53Z"/>
  <path class="cls-112" d="M236.73,31.68c1.01,1.24,.9,2.48-.03,3.71-.14,.09-.25,.07-.35-.06-.2-1.19-.24-2.39,.02-3.58,.11-.12,.23-.14,.37-.06Z"/>
  <path class="cls-14" d="M138.43,30.74c0,3.11,0,6.22,0,9.33,.15,.24,.2,.49,0,.73-.36-.21-.27-.57-.28-.88-.01-2.81-.01-5.63-.01-8.44,0-.28-.04-.58,.29-.74Z"/>
  <path class="cls-77" d="M153.92,36.1c.98,.02,1.49,.73,1.51,1.48,.02,.68-.13,1.66-1.32,1.53,.89-1.01,.64-1.91-.24-2.76-.08-.1-.07-.19,.05-.26Z"/>
  <path class="cls-4" d="M152.34,30.7c-.99,.58-1.72,1.3-1.51,2.59,.07,.44,.05,.89,.07,1.34-.92-1.59-.62-3.36,.69-3.95,.26-.17,.51-.17,.75,.03Z"/>
  <path class="cls-227" d="M245.98,36.16c.34,0,.67,0,1.01,.01-.67,.75-.29,1.61-.28,2.43,.18,.31,.22,.6-.08,.86-.49,.17-.86-.03-.93-.5-.13-.94-.4-1.93,.28-2.8Z"/>
  <path class="cls-104" d="M246.72,39.3c0-.23,0-.47,0-.7,.81,0,1.62,.04,2.42,0,.56-.03,.81,.22,.9,.72-.08,.13-.2,.22-.34,.27-1.01,.1-2.04,.41-2.97-.29Z"/>
  <path class="cls-75" d="M189.09,38.59c0,.24,0,.47,0,.71-.11,.13-.27,.26-.42,.2-1.13-.44-.7-1.43-.72-2.21-.02-.6-.04-1.42,1.03-1.2,.05,.04,.1,.09,.15,.13-.15,.79-.11,1.58-.03,2.37Z"/>
  <path class="cls-152" d="M230.48,11.42c-1.09,0-2.17,0-3.26,0-.06-.51,.17-.72,.69-.7,.77,.02,1.53,0,2.3,0,.3,.16,.54,.34,.27,.72Z"/>
  <path class="cls-26" d="M244.37,40.1c-.38-2.28-.1-4.58-.15-6.87-.02-.84-.23-1.72,.19-2.55,.04,.04,.08,.07,.12,.11,.47,3.1,.48,6.21,0,9.31h-.08s-.07,0-.07,0Z"/>
  <path class="cls-184" d="M253.15,40.37c1.07-.48,2.19-.19,3.29-.26-.58,.97-2.33,1.1-3.29,.26Z"/>
  <path class="cls-156" d="M220.93,11.48c-.24,0-.47,0-.71,0-.74-.02-1.48-.04-2.22-.06-.02-.29-.07-.66,.32-.69,.74-.05,1.49-.04,2.23,0,.5,.02,.39,.43,.38,.75Z"/>
  <path class="cls-151" d="M101.74,36.91c0-1-.01-1.99-.02-2.99,1.04,.03,.75,.85,.71,1.36-.05,.58,.51,1.51-.69,1.63Z"/>
  <path class="cls-236" d="M69.02,36.9c0-.99-.01-1.98-.02-2.97,.16,.02,.37,0,.47,.08,.64,.59,.31,2.6-.45,2.89Z"/>
  <path class="cls-156" d="M127.36,11.47c-.73-.01-1.46-.02-2.19-.03-.27,.17-.53,.21-.78-.03,.35-1.42,1.48-.49,2.23-.7,.55-.15,.86,.16,.73,.77Z"/>
  <path class="cls-94" d="M122.68,11.41c-1,0-2.01,0-3.01,.01,.29-.64,1.86-1,2.76-.64,.31,.13,.23,.39,.25,.63Z"/>
  <path class="cls-76" d="M179.81,5.25c-.33,.05-.64,.05-.93-.15-.79-.57-1.59-.6-2.41-.04-.34,.23-.75,.28-1.16,.17,0-.38,.21-.68,.56-.7,1.15-.04,2.31-.02,3.46,0,.48,0,.42,.41,.48,.72Z"/>
  <path class="cls-127" d="M254.67,35.44c1.11,.39,1.87,1.15,2.23,2.24,.16,.49,.01,.99-.71,.96-.2-.26-.15-.53-.04-.8-.02-.73-.19-1.38-.99-1.64-.11-.29-.61-.32-.49-.75Z"/>
  <path class="cls-42" d="M179.52,15.41c1.16,1.65,1.16,2.1-.02,3.64,.13-1.21,.13-2.43,.02-3.64Z"/>
  <path class="cls-210" d="M80.75,10.67c-.32-.37-.81-.69-.93-1.11-.28-.96,.5-1.4,1.18-1.84-.38,.96-.45,1.94-.24,2.95Z"/>
  <path class="cls-120" d="M185.1,11.49c-.04,.88-.35,1.84,.68,2.43q-1.6-.08-1.43-2.45c.26-.27,.51-.27,.75,.02Z"/>
  <path class="cls-112" d="M53.32,21.54c.87-.08,1.92,.44,2.46-.72,.2,.25,.2,.49,0,.74-.06,.64-.44,.84-1.05,.77-.48-.05-.96-.03-1.44-.04-.2-.26-.22-.51,.03-.75Z"/>
  <path class="cls-207" d="M210.26,11.16c-1,.55-2.01,.33-3.01,0,.85-.66,2.21-.66,3.01,0Z"/>
  <path class="cls-116" d="M151.82,40.38c1-.35,2.04-.29,3.07-.25-.54,.95-2.11,1.08-3.07,.25Z"/>
  <path class="cls-164" d="M55.81,38.57c-.45-.58-.2-1.25-.22-1.87-.06-1.99-.06-3.98-.09-5.97,.5,.31,.29,.81,.29,1.23,.02,2.21,.01,4.41,.02,6.62Z"/>
  <path class="cls-124" d="M175.84,7.74c.58-.5,1.16-.88,2.02-.82,.77,.05,1.13,.33,1.18,1.06-1.03-.59-2.14-.16-3.2-.23Z"/>
  <path class="cls-124" d="M81.22,7.67c.56-.76,1.75-1,2.49-.48,.26,.18,.5,.38,.74,.57-1.08-.03-2.16-.05-3.23-.08Z"/>
  <path class="cls-246" d="M94.9,40.39c1.03-.29,2.06-.5,3.1,0-.8,.7-2.25,.7-3.1,0Z"/>
  <path class="cls-209" d="M192.31,11.43c-.11-.01-.22-.02-.33-.04,.28-1.31,1.32-.58,2.01-.67,.68-.09,.54,.53,.53,.96-.69-.49-1.48-.11-2.21-.26Z"/>
  <path class="cls-209" d="M100.93,11.69c-.78-.48-1.63-.14-2.44-.22-.04-1.37,1.01-.63,1.57-.76,.77-.18,.99,.29,.87,.98Z"/>
  <path class="cls-248" d="M72.79,33.96c.62-.11,.85,.13,.68,.73-.75,0-.53,.57-.56,.97-.09,1.49,.16,2.99-.14,4.48-.06-.06-.11-.11-.17-.17-.26-2.01-.59-4.03,.19-6.01Z"/>
  <path class="cls-106" d="M157.35,11.2c-.88,.5-1.83,.13-2.74,.22-.27-.38-.05-.56,.28-.71,.82,.18,1.81-.51,2.47,.49Z"/>
  <path class="cls-103" d="M113.39,11.46c-.81,.1-1.66-.27-2.43,.25-.12-.69,.09-1.17,.87-.99,.55,.13,1.61-.64,1.56,.75Z"/>
  <path class="cls-28" d="M189.77,13.13c0-.55-.01-1.1-.02-1.65,.24-.27,.49-.28,.75-.02,.02,.59,.03,1.19,.06,1.78,.03,.58-.33,.64-.78,.58-.2-.23-.16-.46,0-.69Z"/>
  <path class="cls-46" d="M188.26,7.75c-.8-.13-1.6-.14-2.4,.02-.13-1.03,.63-.82,1.2-.82,.55,0,1.34-.25,1.21,.8Z"/>
  <path class="cls-153" d="M65.78,30.68c-1.34-.62-2.67-.52-3.99,.06,.02-.24-.06-.59,.21-.65,1.18-.26,2.38-.23,3.56-.04,.28,.04,.23,.39,.22,.63Z"/>
  <path class="cls-117" d="M146.88,17.86c.44-.53,1.2,.13,1.72-.56,.54-.72,.05-1.3,.08-1.93,1.27,.16,.55,1.12,.65,1.72,.09,.54-.34,.77-.86,.77-.53,0-1.06,0-1.59,0Z"/>
  <path class="cls-129" d="M98.47,27.72c.81,0,1.62-.02,2.44-.03,.15,.94-.53,.84-1.08,.78-.53-.06-1.44,.43-1.36-.75Z"/>
  <path class="cls-93" d="M84.74,15.87c.83,.88,.72,2.22-.23,2.75,.06-.92-.27-1.87,.23-2.75Z"/>
  <path class="cls-129" d="M161.81,3.8c-.81,0-1.62,0-2.43,0-.17-.84,.42-.86,.96-.77,.55,.1,1.54-.51,1.47,.77Z"/>
  <path class="cls-207" d="M96.46,11.17c-.87,.56-1.83,.15-2.74,.27-.28-.38-.07-.57,.27-.72,.83,.13,1.78-.43,2.47,.45Z"/>
  <path class="cls-232" d="M136.7,11.37c-.86-.11-1.84,.44-2.56-.45,.91-.19,1.9-.81,2.56,.45Z"/>
  <path class="cls-183" d="M165.55,39.32c-.06,.78,.42,.87,1.03,.78,.02,.92-.65,.74-1.21,.76-.59,.02-.49-.39-.53-.75-.06-.53,.06-.89,.71-.79Z"/>
  <path class="cls-195" d="M156.36,38.63c-.02-.73-.04-1.46-.06-2.2-.09-.13-.06-.23,.07-.3,1.12,.25,.61,1.15,.72,1.8,.08,.54-.23,.73-.73,.7Z"/>
  <path class="cls-179" d="M135.39,34.91c-.55-.79-.1-1.66-.22-2.49,.24-.18,.47-.18,.69,.03,.13,.88,.43,1.78-.47,2.46Z"/>
  <path class="cls-181" d="M62.71,40.16c.87-.02,1.76-.23,2.59,.22-.7,.92-1.68,.36-2.53,.46-.2-.21-.23-.44-.07-.68Z"/>
  <path class="cls-138" d="M234.24,17.87c0-.84,0-1.68,0-2.52,.25-.18,.48-.17,.7,.04,.01,.74,.02,1.48,.03,2.22-.21,.18-.41,.4-.74,.26Z"/>
  <path class="cls-1" d="M148.33,30.76c-.72-.09-1.44-.09-2.15,.03-.19-.83,.39-.85,.93-.8,.52,.04,1.35-.3,1.22,.78Z"/>
  <path class="cls-164" d="M55.5,30.74c-.72,.01-1.44,.03-2.16,.04-.18-.82,.38-.85,.93-.8,.52,.04,1.34-.31,1.23,.76Z"/>
  <path class="cls-118" d="M120.44,40.83c.25,0,.49,0,.74,0,.24-.18,.48-.18,.72,0,.25,0,.5,0,.75,0,.08,.95-.65,.76-1.18,.77-.53,.01-1.14,.06-1.04-.78Z"/>
  <path class="cls-22" d="M190.49,11.46c-.25,0-.5,.01-.75,.02-.46-.3-1.59,.56-1.42-.81,.52,.01,1.04,.04,1.56,.03,.56,0,.68,.3,.61,.77Z"/>
  <path class="cls-87" d="M116.36,16.1c.05,.75,.17,1.51,.02,2.27-.53,.07-.72-.18-.7-.69,.02-.52,0-1.04,0-1.56,.22-.2,.45-.21,.68-.02Z"/>
  <path class="cls-143" d="M204.58,19.3c.3,.86,1.41,1.2,1.45,2.23-1.07-.24-1.37-1.26-2-1.94,.12-.21,.32-.28,.55-.29Z"/>
  <path class="cls-182" d="M249.9,34.67c0-.23-.02-.46-.03-.69,.96-.17,.81,.53,.81,1.06,0,.52,.18,1.23-.79,1.08-.09-.48,.24-.96,0-1.45Z"/>
  <path class="cls-114" d="M214.75,3.76c-.75,0-1.5-.01-2.25-.02-.1-1.12,.76-.66,1.26-.71,.51-.06,1.14-.14,1,.73Z"/>
  <path class="cls-69" d="M75.26,17.61c-.02-.73-.05-1.46-.07-2.19,.84-.16,.84,.41,.78,.94-.06,.49,.4,1.33-.71,1.25Z"/>
  <path class="cls-107" d="M214.71,21.55c0,.24,.01,.49,.02,.73-.56,.02-1.12,.01-1.68,.05-.57,.04-.69-.25-.62-.73,.76-.02,1.52-.04,2.29-.06Z"/>
  <path class="cls-52" d="M227.22,22.34c1.17,0,2.34,0,3.52,0-.42,.31-.96,.25-1.43,.59-.75,.54-1.4-.31-2.09-.59Z"/>
  <path class="cls-56" d="M253.74,32.5c-.14-.67,.25-.86,.83-.86,.68,0,1.45-.17,1.58,.84-.8-.19-1.6-.24-2.4,.01Z"/>
  <path class="cls-241" d="M142.9,40.09c.55-.15,1.53,.53,1.51-.75,.27,.5,.74,1.13,0,1.45-.52,.23-1.45,.45-1.51-.7Z"/>
  <path class="cls-8" d="M150.86,16.86c.41,0,.81,.07,.73,.58-.08,.49,.44,1.21-.49,1.4-.53-.61-.24-1.31-.23-1.98Z"/>
  <path class="cls-59" d="M61.81,5.95c-.18-1.22-.89-.67-1.51-.45,0-.31,0-.62,.01-.93,.64-.55,1.21-.54,1.67,.22,.01,.4,.03,.79,.04,1.19-.08,.08-.15,.07-.22-.02Z"/>
  <path class="cls-110" d="M173.35,37.84c-.43-.97-.87-1.94-1.3-2.91,.23,0,.46,0,.69,.01-.07,1.07,1.14,1.75,.9,2.87-.02,.05-.04,.09-.06,.14-.11,.04-.18,0-.22-.11Z"/>
  <path class="cls-23" d="M184.3,30.71c-.49-.2-.96,.12-1.45,.06,.15-.81,.81-1.1,1.49-.62,.28,.2,.47,.53,.71,.8-.25-.08-.5-.16-.75-.25Z"/>
  <path class="cls-109" d="M135.86,32.45c-.23,0-.46-.02-.69-.03-.17-.83-.73-1.27-1.51-1.49v-.16s0-.09-.02-.14c1.23,.02,1.91,.69,2.22,1.81Z"/>
  <path class="cls-192" d="M78.18,11.47c.98,.28,1.39,1.32,2.3,1.69-.25,.21-.5,.19-.75,0-.76-.35-1.45-.76-1.55-1.7Z"/>
  <path class="cls-65" d="M61.99,4.79c-.5-.52-1.11-.22-1.67-.22-.15-.8,.37-.81,.94-.82,.82-.02,.79,.49,.73,1.04Z"/>
  <path class="cls-101" d="M249.66,32.41c.21-.29,.29-.61,.27-.97-.17-.21-.22-.42-.07-.67,.05-.03,.1-.07,.15-.11,.83,.01,.68,.6,.68,1.11,0,.76-.53,.66-1.02,.63Z"/>
  <path class="cls-94" d="M158.57,30.91c.98-.55,2.04-.07,3.05-.24,.64,.04,1.09,.25,1.01,1-1.2-1.07-2.67-.69-4.06-.76Z"/>
  <path class="cls-211" d="M253.71,38.6c-.2-.02-.56,0-.58-.06-.24-1.06-1.05-.58-1.66-.63,1.28-1.02,1.83-.85,2.24,.69Z"/>
  <path class="cls-74" d="M152.34,30.7c-.25,0-.5-.02-.75-.03,.04-.23-.01-.55,.27-.62,.88-.2,1.79-.16,2.68-.06,.35,.04,.34,.4,.32,.69-.84-.47-1.68-.79-2.52,.02Z"/>
  <path class="cls-222" d="M156.38,36.13c-.02,.1-.05,.2-.07,.3-.62-.54-1.34-.96-1.71-1.74,1.02-.03,1.46,.63,1.78,1.45Z"/>
  <path class="cls-217" d="M218.76,8.42c.49,0,.98,0,1.47,0,.08,.57-.19,.79-.76,.79-.53,0-1,0-.98-.71,.06-.13,.15-.15,.27-.07Z"/>
  <path class="cls-231" d="M175.31,10.19c-.24-.7-.92-1.51,.47-1.79-.13,.6,.47,1.39-.47,1.79Z"/>
  <path class="cls-224" d="M100.94,32.45c-.92-.36-1.31-1.4-2.27-1.71,1.37-.05,2.08,.49,2.27,1.71Z"/>
  <path class="cls-208" d="M164.05,38.6c.02-.57,.05-1.14,.07-1.72,.73-.04,.72,.43,.73,.96,0,.57-.22,.83-.8,.76Z"/>
  <path class="cls-59" d="M70.73,40.36c.22-.02,.43-.04,.54-.27,.24,0,.48,0,.72-.01,.22-.15,.45-.2,.69-.03,.03,.03,.07,.05,.1,.08-.28,.96-1.16,1.05-2.05,.23Z"/>
  <path class="cls-202" d="M174.02,40.82c.09-.48,.19-.96,.28-1.44,.71-.1,.79,.33,.76,.87-.04,.75-.56,.61-1.04,.56Z"/>
  <path class="cls-199" d="M147.58,40.09c.24,0,.48,0,.72,.01-.32,.94-1.07,1.04-1.96,.26,.22-.02,.43-.06,.54-.29,.24-.17,.47-.17,.7,.01Z"/>
  <path class="cls-22" d="M87.74,17.86c0-.58,0-1.16,0-1.74,.6-.05,.75,.28,.74,.81,0,.53-.02,.99-.74,.93Z"/>
  <path class="cls-108" d="M85.96,8.42c.09,.02,.19,.04,.28,.06,0,.67-.41,.76-.98,.73-.57-.03-.84-.23-.74-.81l1.44,.02Z"/>
  <path class="cls-52" d="M252.15,32.18c0,.59,0,1.17,0,1.76-.59,.04-.73-.29-.74-.81-.01-.54,.06-.96,.73-.95Z"/>
  <path class="cls-143" d="M192.09,20.06c1.05-.06,1.2,.75,1.46,1.47-.82-.16-1.21-.75-1.46-1.47Z"/>
  <path class="cls-253" d="M228.24,36.4l-.73-1.74c1.16,.49,1.42,1.11,.73,1.74Z"/>
  <path class="cls-33" d="M92.53,11.47c-.4,.6-.8,1.21-1.55,1.44-.17-.75,.53-1.41,1.55-1.44Z"/>
  <path class="cls-133" d="M124.4,11.41c.26,.01,.52,.02,.78,.03-.02,.07-.03,.14-.03,.22,0,0,0,0,0,0-.57,.89-1.1,.9-1.75,.03-.22-.13-.56,0-.71-.3,.57,0,1.14,0,1.71,.01Z"/>
  <path class="cls-72" d="M217.73,7.72c-.4,0-.73-.06-.73-.58,0-.55,0-1.08,.73-1.17,.1,.1,.15,.22,.13,.37-.06,.46,.15,.94-.14,1.38Z"/>
  <path class="cls-175" d="M220.96,39.35c.14,.34-.18,.81,.3,1.06-.01,.48-.35,.5-.69,.44-.48-.09-.31-.49-.34-.79-.05-.54,.23-.73,.73-.71Z"/>
  <path class="cls-92" d="M146.15,18.61c.06-.5,.46-.27,.73-.34,.85,.11,1.71,.2,1.76,1.34,0,.2-.03,.4-.29,.43-.29-1.14-1.04-1.59-2.19-1.43Z"/>
  <path class="cls-59" d="M138.42,40.8c0-.24,0-.49,0-.73,.24,0,.48,0,.72,0,.24,0,.48,0,.72,0,.1,.09,.19,.18,.29,.27-.35,1.02-1.14,.33-1.73,.44Z"/>
  <path class="cls-154" d="M204.58,19.3c-.11,.23-.32,.28-.55,.29-.44-.8-.3-1.65-.22-2.5,.26,.74,.51,1.48,.77,2.21Z"/>
  <path class="cls-201" d="M200.82,18.63c.23-.1,.45-.2,.68-.29-.13,.62,.55,1.58-.72,1.74,.01-.48,.03-.96,.04-1.45Z"/>
  <path class="cls-159" d="M53.32,21.54c-.01,.25-.02,.5-.03,.75-.47,.1-.82,.06-.77-.55,.04-.48-.01-1.02,.74-.94,.02,.25,.04,.49,.06,.74Z"/>
  <path class="cls-27" d="M201.52,40.82c.24,0,.49,0,.73,0,.06,.48-.07,.77-.64,.79-.51,.01-.91-.02-.92-.66,.03-.03,.06-.07,.09-.11,.24-.19,.48-.19,.73-.02Z"/>
  <path class="cls-30" d="M57.99,40.82c0-.25,0-.49,0-.74-.18-.23-.2-.46-.04-.71,.05,0,.1,0,.15-.02,.57-.09,.69,.21,.68,.7-.01,.54-.19,.85-.79,.76Z"/>
  <path class="cls-91" d="M240.41,30.77c-.49-.02-.97-.04-1.46-.06-.11-.62,.24-.73,.76-.73,.57,0,.82,.22,.69,.79Z"/>
  <path class="cls-40" d="M85.24,5.21c-.26,.01-.51,.03-.77,.04-.41-.08-.72-.27-.8-.72,.6,.04,1.46-.5,1.56,.68Z"/>
  <path class="cls-12" d="M61.81,5.95c.07,.02,.14,.02,.22,.02,1,.23,.58,1.1,.78,1.69,.08,.13,.05,.24-.08,.32-.04-.8-1.09-1.14-.92-2.03Z"/>
  <path class="cls-63" d="M172.55,8.44c0,.51,0,1.01-.01,1.52-.54,.07-.72-.17-.72-.7,0-.53,.1-.88,.73-.82Z"/>
  <path class="cls-236" d="M249.89,40.8c0-.25,0-.49-.01-.74-.16-.22-.15-.44,.01-.66,.05-.02,.1-.04,.15-.08,.67-.03,.66,.4,.65,.88-.01,.57-.32,.67-.8,.6Z"/>
  <path class="cls-122" d="M179.56,8.46c.5,0,1.01,.02,1.51,.02,.07,.64-.34,.71-.84,.73-.57,.02-.7-.28-.68-.75Z"/>
  <path class="cls-55" d="M185.1,11.49c-.25,0-.5-.01-.75-.02-.09-1.26,.9-.62,1.43-.8,.17,.6-.12,.81-.68,.81Z"/>
  <path class="cls-137" d="M189.77,13.13c0,.23,0,.46,0,.69-.49,.03-.98,.06-1.47,.09-.02-1.21,.95-.57,1.46-.78Z"/>
  <path class="cls-196" d="M233.5,37.16c0-.24,0-.48,0-.72,.32-.4,.74-.36,1.18-.26,.14,.05,.25,.14,.33,.26-.09,1.09-1,.5-1.51,.71Z"/>
  <path class="cls-108" d="M116.36,16.1c-.23,0-.45,.02-.68,.02,.11-.56-.43-1.44,.73-1.49-.02,.49-.03,.98-.05,1.47Z"/>
  <path class="cls-167" d="M151.58,14.6c-.11,.57,.51,1.47-.72,1.52,0-.49,0-.98,.01-1.47,.22-.21,.45-.23,.7-.05Z"/>
  <path class="cls-73" d="M89.92,16.11c0,.5,0,1,0,1.5-.6,.04-.71-.31-.72-.81,0-.52,.23-.71,.72-.68Z"/>
  <path class="cls-234" d="M189.07,32.46c0,.48,0,.96,0,1.44-.03,.04-.07,.07-.1,.11-.69,.22-.93-.19-.95-.75-.02-.58,.12-1.11,.93-.9,.04,.03,.08,.07,.11,.1Z"/>
  <path class="cls-94" d="M175.82,40.11c.49,0,.97-.01,1.46-.02,.13,.55-.03,.82-.66,.79-.55-.02-1-.04-.8-.78Z"/>
  <path class="cls-240" d="M70.56,17.59c1.49,.01,2.98,.02,4.46,.04-1.49,.2-2.98,.28-4.46-.04Z"/>
  <path class="cls-114" d="M246.73,33.89c-.25,0-.49,0-.74,0-.46-.48-.45-.95,0-1.43,.24,0,.49,0,.73,0,0,.47,0,.95,0,1.42Z"/>
  <path class="cls-190" d="M224.21,33.18c-.34,.73-.67,1.46-1.01,2.2-.2-.25-.16-.5,0-.75,.2-.51-.3-1.38,.75-1.45,.09-.11,.18-.1,.26,.01Z"/>
  <path class="cls-244" d="M124.63,21.82c0,.08,.02,.17,.02,.25-.59,.51-1.16,.12-1.74-.02,.49-.71,1.08-.64,1.72-.23Z"/>
  <path class="cls-206" d="M180.36,36.83c.75,.38,1.1,1.08,1.48,1.77-.88-.1-1.17-.82-1.54-1.44-.08-.13-.06-.24,.07-.33Z"/>
  <path class="cls-239" d="M224.21,33.18c-.09,0-.18,0-.26-.01-.13-1.02,.61-1.69,1.02-2.49,.33,1-.73,1.6-.75,2.5Z"/>
  <path class="cls-30" d="M142.39,30.95c-.02-.07-.03-.14-.06-.21,.77-.07,1.6-.22,1.52,.99-.71,.15-.77-.9-1.46-.79Z"/>
  <path class="cls-221" d="M235.01,36.44c-.11-.02-.21-.04-.32-.06,.41-.63,.91-1.13,1.76-1,.08,0,.16,0,.24,.01-.02,1.19-1.01,.87-1.68,1.05Z"/>
  <path class="cls-26" d="M179.07,22.06c.32-.61,.94-.43,1.45-.55-.08,1.22-.75,.92-1.45,.55Z"/>
  <path class="cls-84" d="M80,5.27c-.33,.74-1,1.02-1.71,1.25,.44-.59,.7-1.42,1.71-1.25Z"/>
  <path class="cls-6" d="M217.73,7.72c.01-.49,.02-.98,.03-1.47,.04-.11,.1-.12,.19-.05-.15,.89,.28,1.57,.8,2.23-.09,.02-.18,.05-.27,.07-.58,.06-.68-.34-.76-.77Z"/>
  <path class="cls-97" d="M153.92,36.1c-.02,.09-.03,.17-.05,.26-.88,.3-.82-.96-1.56-.92,.63-.01,1.41-.38,1.61,.66Z"/>
  <path class="cls-213" d="M77.5,17.61c-.13,.43,.32,1.11-.54,1.23-.45-.35-.19-.81-.19-1.23,.24-.22,.49-.21,.73,0Z"/>
  <path class="cls-125" d="M253.66,30.68c-.64,.13-.73,1.02-1.46,1.02-.15-1.24,.75-1,1.46-1.02Z"/>
  <path class="cls-170" d="M256.15,37.83c.01,.27,.03,.53,.04,.8-.02,.74-.47,.82-1.06,.69,.02-.71,1.03-.76,1.02-1.49Z"/>
  <path class="cls-82" d="M147.66,13.12c-.82,.15-.92-.76-1.49-.99,.25-.2,.48-.15,.72,.02,.56,.08,.9,.34,.77,.97Z"/>
  <path class="cls-191" d="M223.98,19.34c.1,.64,1.12,.73,.93,1.54-.54,0-.92-.19-.94-.79-.18-.25-.21-.5,0-.74Z"/>
  <path class="cls-177" d="M72.98,31.96c-.47-.3-1.16-.42-1-1.22,.87-.02,.91,.62,1,1.22Z"/>
  <path class="cls-252" d="M57.24,12.36c-.04,.61,.51,1.51-.76,1.51-.3-.78,.65-.94,.76-1.51Z"/>
  <path class="cls-138" d="M148.36,13.9c-.02,.26-.04,.51-.06,.77-1.11-.14-.62-.96-.66-1.55,.24,.26,.48,.52,.72,.78Z"/>
  <path class="cls-36" d="M182.27,19.58c-.39-.63-.4-1.11,.48-1.26,.09,.52,.14,1.01-.48,1.26Z"/>
  <path class="cls-22" d="M233.75,19.84c.05-.45,.67-.67,.51-1.22,.2-.23,.42-.25,.66-.07,.09,.85-.47,1.14-1.17,1.29Z"/>
  <path class="cls-251" d="M223.98,19.34c0,.25,0,.5,0,.74-1.19-.1-.67-.95-.69-1.56,.18,.32,.36,.63,.7,.81Z"/>
  <path class="cls-177" d="M74.43,33.22c-.78,.11-.9-.56-1.2-1.01,.62,.08,1.28,.11,1.2,1.01Z"/>
  <path class="cls-35" d="M236.73,31.68c-.09,.01-.18,.03-.27,.04-.67,.18-.92-.07-.77-.74,.02-.08,.02-.16,0-.24,.74-.11,1.06,.22,1.04,.94Z"/>
  <path class="cls-57" d="M226.45,31.73c-.67-.02-.81-.52-.96-1.02,.65,.04,1.19,.17,.96,1.02Z"/>
  <path class="cls-192" d="M67.26,39.38c.34-.49,.68-.98,1.02-1.47,.19,.25,.17,.49-.02,.72-.03,.64-.4,.85-1,.74Z"/>
  <path class="cls-243" d="M94.72,30.71c-.69,.14-.93,1.08-1.76,.96,.3-.84,.92-1.09,1.76-.96Z"/>
  <path class="cls-235" d="M171.86,18.34c.93,.63,.95,.74,.22,1.24-.45-.35-.19-.82-.22-1.24Z"/>
  <path class="cls-193" d="M257.41,31.7c-.78,.09-.31-.81-.77-.97,.72-.04,1.39-.03,.77,.97Z"/>
  <path class="cls-90" d="M67.26,31.7c-.66-.08-.92-.78-1.51-.97,.83-.11,1.47,.14,1.81,.94-.09,.1-.19,.11-.3,.02Z"/>
  <path class="cls-153" d="M180.36,36.83c-.02,.11-.04,.22-.07,.33-.82-.06-.94-.75-1.19-1.31,.33,.45,1.25,.15,1.26,.98Z"/>
  <path class="cls-113" d="M107.95,36.14c.63,.05,.85,.41,.73,1-.72,.06-.73-.6-1.03-.98,.09-.1,.19-.11,.3-.03Z"/>
  <path class="cls-102" d="M79.73,13.16c.25,0,.5,0,.75,0,.18,.23,.37,.46,.55,.69-.59,.06-1.28,.3-1.3-.69Z"/>
  <path class="cls-160" d="M67.26,31.7c.1,0,.2-.02,.3-.02,.57-.08,.5,.48,.73,.73,.15,.24,.21,.48,0,.72-.2-.58-1.07-.68-1.04-1.43Z"/>
  <path class="cls-157" d="M106.16,21.58c.56-.07,1.07-.08,1.03,.71-.64,.18-.97-.06-1.03-.71Z"/>
  <path class="cls-199" d="M92.2,21.57c.58-.09,1.02,.02,1.02,.72-.63,.16-1-.03-1.02-.72Z"/>
  <path class="cls-258" d="M154.6,32.45h1.01c-.03,.33,.03,.69-.45,.73-.56,.04-.53-.37-.56-.73Z"/>
  <path class="cls-123" d="M85.22,21.55c-.02-.7,.44-.78,.99-.74,0,.67-.35,.9-.99,.74Z"/>
  <path class="cls-174" d="M118.65,21.57c.57-.08,1.03-.01,1.02,.72-.65,.2-.96-.09-1.02-.72Z"/>
  <path class="cls-209" d="M55.78,21.56c0-.25,0-.49,0-.74,.58,.11,.45-.54,.77-.71-.11,.56,.39,1.44-.77,1.45Z"/>
  <path class="cls-154" d="M62.71,40.16c.02,.23,.04,.45,.07,.68-.6,.13-1.01,0-1.03-.71,.32,0,.64,.02,.96,.02Z"/>
  <path class="cls-111" d="M210.75,22.29c0-.71,.43-.81,1.01-.73-.04,.64-.36,.9-1.01,.73Z"/>
  <path class="cls-5" d="M163.29,35.46c-.71-.03-1.06-.2-.39-.87,.19-.18,.28-.46,.41-.69l-.02,1.55Z"/>
  <path class="cls-64" d="M233.48,13.15c-.63,0-.84-.36-.8-.93,.7-.05,.9,.31,.8,.93Z"/>
  <path class="cls-118" d="M139.16,12.91c-.04,.47,.07,1.01-.55,1.22-.58-.74,0-.98,.55-1.22Z"/>
  <path class="cls-50" d="M223.97,13.89c.24,.72-.67,.92-.69,1.52,.05-.59-.53-1.46,.69-1.52Z"/>
  <path class="cls-131" d="M204.51,13.89c.27,.73-.61,.96-.69,1.53,.02-.6-.53-1.46,.69-1.53Z"/>
  <path class="cls-32" d="M175.05,13.18c.73-.21,.94,.6,1.49,.75-.53-.19-1.48,.46-1.49-.75Z"/>
  <path class="cls-248" d="M77.5,17.61c-.24,0-.49,0-.73,0-.01-1.3,.94-.59,1.5-.71-.19,.31-.79,.17-.77,.7Z"/>
  <path class="cls-40" d="M87.7,15.41c-.05-.61-1.01-.75-.78-1.49,1.26-.01,.73,.89,.78,1.49Z"/>
  <path class="cls-136" d="M156.31,31.77c-.62-.06-.78-.57-1.01-1.02,.8-.11,1.14,.23,1.01,1.02Z"/>
  <path class="cls-44" d="M173.35,16.91c-.52,.18-.84,.78-1.48,.72-.04-1.32,.93-.6,1.48-.72Z"/>
  <path class="cls-25" d="M167.8,34.61c.19,.71-.51,1.01-.71,1.54-.21-.24-.2-.49-.03-.75,.13-.37,0-.97,.73-.79Z"/>
  <path class="cls-66" d="M232.69,12.19c-.74,.23-.85-.77-1.48-.76,.58,.08,1.51-.49,1.48,.76Z"/>
  <path class="cls-97" d="M227.23,11.43c-.54,.19-.83,.88-1.53,.72,.05-1.2,.98-.57,1.53-.72Z"/>
  <path class="cls-228" d="M146.89,12.15c-.24,0-.48-.02-.72-.02,.04-.57-.56-.44-.8-.71,.58,.09,1.46-.43,1.51,.73Z"/>
  <path class="cls-74" d="M84.47,12.19c-.76,.25-.95-.62-1.52-.75,.6,.06,1.5-.48,1.52,.75Z"/>
  <path class="cls-87" d="M92.97,39.36c.61-.12,.95,.13,1,.74-.6,.11-.99-.06-1-.74Z"/>
  <path class="cls-51" d="M62.73,7.98c.03-.11,.05-.21,.08-.32,1.18,.11,.61,.96,.68,1.55-.03-.54-.67-.72-.76-1.23Z"/>
  <path class="cls-237" d="M198.27,22.29c0-.73,.46-.79,1.02-.72-.02,.7-.39,.88-1.02,.72Z"/>
  <path class="cls-247" d="M255.45,34.65c-.57,.09-1.02,.02-1.03-.7,.59-.12,1.02-.01,1.03,.7Z"/>
  <path class="cls-63" d="M110.93,18.34c.14,.6-.09,.95-.72,1.03-.12-.59-.04-1.04,.72-1.03Z"/>
  <path class="cls-135" d="M60.26,5.97c.09,.56,0,1-.7,1.02-.13-.59-.05-1.03,.7-1.02Z"/>
  <path class="cls-214" d="M65.75,13.9c-.74,0-.81-.45-.72-1.02,.64,.06,.9,.38,.72,1.02Z"/>
  <path class="cls-23" d="M56.33,13.92c.27,.76-.74,.9-.76,1.51,.06-.6-.51-1.51,.76-1.51Z"/>
  <path class="cls-221" d="M110.92,22.3c-.05-.7,.43-.77,.96-.78,.05,.71-.31,.91-.96,.78Z"/>
  <path class="cls-249" d="M68.29,33.13c0-.24,0-.48,0-.72,1.14,.1,.65,.94,.7,1.53-.27-.24-.11-.84-.7-.81Z"/>
  <path class="cls-178" d="M174.06,21.57c.57-.09,1.03,0,1.02,.72-.64,.17-.96-.09-1.02-.72Z"/>
  <path class="cls-124" d="M89.24,37.9c-.06-.53-.1-1.06,.69-1.03,.13,.58,.09,1.05-.69,1.03Z"/>
  <path class="cls-31" d="M234.92,18.55c-.22,.02-.44,.05-.66,.07,0-.25-.01-.51-.02-.76,.25-.09,.49-.17,.74-.26-.02,.31-.04,.63-.06,.94Z"/>
  <path class="cls-63" d="M182.04,6.99c-.59-.08-.77-.57-1.01-1,.1-.1,.2-.11,.31-.02,.73,.01,.8,.46,.7,1.02Z"/>
  <path class="cls-93" d="M118.96,11.46c-.24,.59-.62,.96-1.31,.9,.32-.47,.49-1.15,1.31-.9Z"/>
  <path class="cls-226" d="M176.83,11.17c-.69,.47-1.03,.13-1.24-.52,.44,.12,1.02-.1,1.24,.52Z"/>
  <path class="cls-3" d="M172.3,19.85c.6,.07,1.08,.25,1.02,.98-.87,.21-.65-.68-1.02-.98Z"/>
  <path class="cls-95" d="M116.47,19.07c.39,.23,.86,.41,.69,1.02-.86,.08-.77-.47-.69-1.02Z"/>
  <path class="cls-251" d="M230.48,11.42c-.09-.24-.18-.48-.27-.72,.56-.06,1.07-.07,1.02,.72-.25,0-.5,0-.75,0Z"/>
  <path class="cls-4" d="M112.64,20.78c-.15-.63,.38-.73,.74-.98,.06,.55,.18,1.15-.74,.98Z"/>
  <path class="cls-169" d="M170.31,30.96c-.25-.09-.49-.17-.74-.26-.06-.35-.09-.74,.42-.65,.54,.1,.27,.58,.32,.91Z"/>
  <path class="cls-100" d="M154.88,10.71c-.09,.24-.18,.47-.28,.71-.25,0-.5,0-.75,0-.07-.81,.46-.78,1.02-.71Z"/>
  <path class="cls-70" d="M93.99,10.72c-.09,.24-.18,.48-.27,.72-.25,0-.5,0-.75,0-.04-.77,.44-.81,1.02-.72Z"/>
  <path class="cls-95" d="M75.25,36.15c.64,.07,.83,.44,.71,1.03-.54-.14-.8-.55-1.01-1.01,.09-.1,.19-.1,.3-.02Z"/>
  <path class="cls-87" d="M82.24,11.41c-.68,.24-.78-.33-1.02-.71,.54-.05,1.1-.11,1.02,.71Z"/>
  <path class="cls-6" d="M254.67,35.44c.2,.23,.56,.35,.49,.75-.73,.18-.91-.69-1.51-.75,.34,0,.68,0,1.03,0Z"/>
  <path class="cls-254" d="M151.58,14.6c-.23,.02-.47,.04-.7,.05-.2-.64,.32-.78,.72-1.01,0,.32,0,.64-.01,.96Z"/>
  <path class="cls-110" d="M174.29,39.39c-.07,0-.13,0-.2-.04-.43-.38-.79-.79-.58-1.42,.04-.04,.08-.07,.12-.11,.67,.34,.78,.91,.66,1.58Z"/>
  <path class="cls-74" d="M167.06,35.4l.03,.75c-.24,.11-.47,.21-.71,.32-.09-.56-.15-1.1,.68-1.07Z"/>
  <path class="cls-207" d="M107.95,36.14c-.1,0-.2,.02-.3,.03-.63,.08-.45-.52-.68-.79,.5,.04,1.05,0,.98,.76Z"/>
  <path class="cls-42" d="M75.25,36.15c-.1,0-.2,.01-.3,.02-.58,.07-.53-.45-.71-.75,.58-.08,1.01,.03,1.01,.73Z"/>
  <path class="cls-204" d="M234.95,15.39c-.23-.01-.47-.03-.7-.04,0-.33,0-.66,.01-.99,.37,.25,.95,.36,.69,1.03Z"/>
  <path class="cls-206" d="M217.96,6.2c-.07,0-.13,.02-.19,.05-.01-.09-.02-.19-.03-.28,.07-.65,.47-.82,1.05-.69-.19,.38-.44,.71-.83,.91Z"/>
  <path class="cls-29" d="M181.34,5.97c-.1,0-.21,.02-.31,.02-.61,.12-.5-.49-.75-.72,.58-.1,1.04-.03,1.06,.7Z"/>
  <path class="cls-83" d="M169.57,30.7c.03,.54,.06,1.08-.75,.99-.18-.65,.27-.83,.75-.99Z"/>
  <path class="cls-4" d="M223.2,34.62c0,.25,0,.5,0,.75-.23,.1-.45,.2-.68,.3-.05-.52-.17-1.09,.67-1.06Z"/>
  <path class="cls-96" d="M54.77,17.59c.18,.61-.25,.83-.69,1.03-.08-.55-.15-1.09,.69-1.03Z"/>
  <path class="cls-13" d="M191.32,18.33c.24,.09,.47,.18,.71,.27,0,.25,0,.49,0,.74-.8,.05-.78-.46-.71-1.01Z"/>
  <path class="cls-114" d="M68.26,38.63c0-.24,.01-.48,.02-.72,.22-.11,.45-.22,.67-.32,.1,.56,.11,1.07-.69,1.04Z"/>
  <path class="cls-49" d="M222.49,36.15c.17,.62-.24,.84-.72,1.01-.13-.59,0-1.01,.72-1.01Z"/>
  <path class="cls-100" d="M91.51,37.58c.46,.2,.93,.4,.7,1.05-.83,.04-.79-.49-.7-1.05Z"/>
  <path class="cls-16" d="M13.6,15.39c.83-.17,1.07,.68,1.43,1.04,1.49,1.5,2.94,3.02,4.52,4.44,1.71,1.55,3.24,3.3,4.88,4.93,1.19,1.19,2.48,2.27,3.6,3.51,1.1,1.21,2.27,2.32,3.44,3.45,.91,.89,1.79,1.83,2.73,2.68,.19,.17,.41,.24,.34,.52-.07,.27-.32,.18-.51,.21-.08,.01-.17,0-.25,0-6.72-.01-13.45-.03-20.17-.04-.41-.43-.37-.98-.37-1.51,0-5.91,0-11.82,0-17.74,0-.53-.07-1.08,.37-1.51Z"/>
  <path class="cls-27" d="M13.6,15.39c0,6.92,0,13.84,0,20.76-.61,.16-.8-.1-.8-.69,.02-6.7,.01-13.39,.03-20.09,0-.25-.13-.65,.31-.68,.52-.04,.37,.43,.46,.71Z"/>
  <path class="cls-16" d="M40.8,28.5c-1.36-1.1-2.36-2.55-3.58-3.77-1.6-1.6-3.59-2.85-4.95-4.68-1.78-2.4-4.56-3.78-6.24-6.19-1.08-1.55-2.63-2.52-3.91-3.8-.36-.36-.87-.62-.84-1.29,.02-.46-.45-.2-.67-.32-.35-.55-.06-.83,.45-1.01,.36-.12,.74-.09,1.11-.09,5.96,0,11.91,0,17.87,0,.54,0,1.08-.04,1.55,.31,.37,.41,.34,.91,.34,1.4,0,6,.02,12-.02,18,0,.67,.28,1.74-1.11,1.45Z"/>
  <path class="cls-246" d="M41.54,7.72c-6.7-.01-13.4-.02-20.1-.04-.56,0-1.02,0-.83,.76-.62,.09-.79-.21-.78-.78,.02-.77,.54-.69,1.04-.69,4.32,0,8.64,0,12.96,0,2.03,0,4.07,.03,6.1-.01,.9-.02,1.71,.09,2.35,.78-.25,.19-.5,.17-.74-.01Z"/>
  <path class="cls-247" d="M41.54,7.72c.25,0,.49,0,.74,.01,.01,6.86,.03,13.71,.04,20.57,0,.37,.16,.89-.51,.92-.52,.02-1.02,0-1.01-.72,.52,.01,.8-.11,.8-.76-.04-6.67-.04-13.35-.05-20.02Z"/>
  <path class="cls-142" d="M159.38,17.85c-.02,.16-.03,.31-.05,.47-.34,.26-.39,.75-.79,.95-.23,.19-.45,.37-.68,.56-1.06,.14-2.11,.33-3.07-.42-1.2-.94-1.12-2.23-.97-3.49,.06-.51,.08-1.06,.27-1.56,.14-.33,.45-.4,.76-.48,1.01-.37,2.02-.62,3.03-.03,.33,.04,.78-.1,.72,.51-.05,.52,.36,.76,.71,1.02,.3,.81,.58,1.63,.07,2.46Z"/>
  <path class="cls-33" d="M154.09,14.36c0,.86,0,1.72,0,2.58,0,1.93,.96,2.88,2.9,2.88,.29,0,.58,.01,.87,.02-2.36,.57-3.25,.34-4.04-1.47-.51-1-.5-2.01,0-3.01,.14-.32-.13-.75,.27-.99Z"/>
  <path class="cls-210" d="M153.82,15.36c0,1,0,2.01,0,3.01-.08,0-.18,.01-.24-.03-.98-.59-.28-1.52-.46-2.27-.12-.51,.18-.74,.69-.71Z"/>
  <path class="cls-145" d="M157.88,13.86c-1.01,0-2.02,.02-3.03,.03,.62-.73,1.41-.88,2.33-.73,.46,.07,.64,.3,.7,.7Z"/>
  <path class="cls-218" d="M159.38,17.85c-.02-.82-.04-1.64-.07-2.46,.55,.81,1.55,1.6,.07,2.46Z"/>
  <path class="cls-56" d="M158.54,19.27c.02-.52,.12-.97,.79-.95,.11,.62-.04,1.04-.79,.95Z"/>
  <path class="cls-257" d="M93.22,14.65c.59-1.04,1.63-1.17,2.62-1.02,1.02,.14,1.8,.7,2.17,1.81,.24,.72,.61,1.38,.43,2.17-.31,.29-.59,.61-.69,1.04-.03,.21-.06,.42-.09,.64-.3,.61-.94,.61-1.48,.78h.01c-.5,.4-1,.4-1.49,0l.02-.02c-.96-.18-1.62-.66-1.69-1.71-.38-1.25-.23-2.48,.18-3.69Z"/>
  <path class="cls-258" d="M93.22,14.65c0,1.32-.02,2.64-.03,3.96-.09,.1-.16,.09-.22-.02-1-.91-.91-2.4,.25-3.93Z"/>
  <path class="cls-80" d="M94.71,20.07h1.49c.06,.61-.26,.76-.81,.75-.55,0-.72-.26-.69-.75Z"/>
  <path class="cls-78" d="M92.98,18.58c.07,0,.15,0,.22,.02,.35,.65,.83,1.16,1.53,1.44-1.16,.18-1.72-.33-1.75-1.47Z"/>
  <path class="cls-176" d="M96.19,20.06c.68,.08,.71-1.03,1.48-.78,.04,1.25-.87,.74-1.48,.78Z"/>
  <path class="cls-81" d="M97.76,18.64c-.12-.58-.11-1.06,.69-1.04,.21,.63-.15,.9-.69,1.04Z"/>
  <path class="cls-24" d="M207.05,14.66c.21-.45,.55-.77,1-.98,1.01-.23,2.01-.27,2.98,.2,.76-.26,.39,1.08,1.16,.8,.62,2.59,.48,4.26-1.47,5.36l.02,.02c-.74,.54-1.48,.52-2.22,.01-.65-.34-1.27-.72-1.53-1.46-.61-1.32-.4-2.63,.06-3.94Z"/>
  <path class="cls-31" d="M207.05,14.66c-.02,1.31-.04,2.63-.06,3.94-.78-.56-1.06-2.34-.5-3.2,.17-.26,.37-.5,.55-.75Z"/>
  <path class="cls-25" d="M210.72,20.04c.05-.11,.06-.27,.15-.33,1.85-1.31,1.6-3.17,1.32-5.03,.64,.32,.23,.94,.4,1.39,.32,.53,.32,1.05,0,1.58-.14,1.67-.65,2.34-1.86,2.38Z"/>
  <path class="cls-165" d="M211.02,13.87c-.99-.05-2.01,.19-2.98-.2,.89-.87,2.19-.78,2.98,.2Z"/>
  <path class="cls-54" d="M208.52,20.06c.74,0,1.48,0,2.22-.01,.1,.85-.5,.79-1.04,.77-.53-.02-1.25,.21-1.18-.75Z"/>
  <path class="cls-140" d="M212.58,17.65c0-.53,0-1.05,0-1.58,.5,.03,.68,.29,.68,.79,0,.5-.18,.76-.68,.79Z"/>
  <path class="cls-139" d="M62.48,13.17c.11,.24-.11,.59,.25,.74,.4,.37,.83,.78,.58,1.35-.23,.53-.82,.5-1.3,.46-1.08-.08-2.22,.34-3.23-.37-.05-.45-.09-.91,.33-1.21,.44-.31,.43-.75,.43-1.19,.15-.55,.39-1.06,.75-1.52h0c.19-.33-.02-.99,.72-.89,.56,.08,.93,.33,.87,.96-.1,.66,.15,1.2,.59,1.67Z"/>
  <path class="cls-107" d="M58.78,15.36c1.15,0,2.29,.03,3.44,.01,.35,0,.8,.14,1.03-.18,.35-.49-.37-.49-.45-.8-.04-.16-.05-.32-.07-.48,1.11-.14,.77,.7,.81,1.23,.04,.49,0,1-.74,.99-1.11-.03-2.23-.02-3.34,0-.56,0-.73-.27-.67-.76Z"/>
  <path class="cls-58" d="M61.8,11.64c-.02-.53-.33-.75-.82-.85-.59-.13-.44,.46-.68,.66,.04-.54-.41-1.28,.51-1.49,.45-.1,.87-.04,1.04,.56,.11,.4,.22,.77,.14,1.19-.09,.07-.16,.05-.19-.06Z"/>
  <path class="cls-162" d="M60.3,11.44c.29,.77-.43,1.05-.75,1.52-.15-.7-.09-1.3,.75-1.52Z"/>
  <path class="cls-93" d="M61.8,11.64c.06,.02,.13,.04,.19,.06-.22,.61,.78,.83,.49,1.47-.97-.18-.67-.92-.68-1.53Z"/>
  <path class="cls-139" d="M145.32,13.94c.58,1.27,.49,1.43-.77,1.44-.75,0-1.5,.02-2.24,0-.44-.01-1.21,.13-1.2-.27,.01-.41,.24-1.16,1-1.23,1.08-.59,2.15-.36,3.21,.07Z"/>
  <path class="cls-241" d="M145.32,13.94c-1.07-.02-2.14-.04-3.21-.07,.77-1.1,1.54-1.09,3.21,.07Z"/>
  <path class="cls-172" d="M142.88,20.08h1.75c.06,.59-.25,.76-.81,.75-.55,0-1-.04-.94-.75Z"/>
  <path class="cls-179" d="M141.38,19.08c.52,.14,.87,.46,1.05,.96-.81,.17-1.17-.14-1.05-.96Z"/>
  <path class="cls-20" d="M121.16,20.08c-.98-.12-2.16-1.21-2.25-2.19-.14-1.55-.27-3.14,1.46-4.04,.94-.52,1.87-.4,2.8,.02,1.16,.55,1.33,1.75,1.68,2.75,.34,.99-1.11,3.07-2.2,3.46-.5,.39-.99,.39-1.5,.01Z"/>
  <path class="cls-89" d="M123.18,13.87l-2.8-.02c.52-1.05,1.78-1.04,2.8,.02Z"/>
  <path class="cls-80" d="M121.16,20.08h1.5c.04,.47-.12,.74-.68,.75-.55,0-.88-.14-.82-.75Z"/>
  <path class="cls-240" d="M123.39,11.69c.6,.65,1.18,.65,1.75-.03,.07,.6-.24,.77-.79,.76-.52-.01-1.01,0-.96-.73Z"/>
  <path class="cls-142" d="M226.98,19.83c-.51-.26-.5-.75-.52-1.22-.65-1.1-.11-2.35-.48-3.48,.36-.64,.94-1.05,1.53-1.45,1.02-.24,2.02-.25,2.99,.18,1.08,.37,1.47,1.19,1.5,2.25,.19,.25,.23,.53,.16,.83-.43,.55-.14,1.31-.53,1.85-.72,1-1.7,1.57-2.97,1.35-.56-.1-1.14-.12-1.68-.31Z"/>
  <path class="cls-194" d="M225.98,15.13c.48-.01,.51,.3,.5,.66-.01,.94-.01,1.88-.02,2.83-.48-.19-.83-.46-.75-1.06,.11-.81-.26-1.66,.27-2.43Z"/>
  <path class="cls-9" d="M226.98,19.83c.24-.02,.5-.09,.73-.05,2.3,.4,3.65,.08,4.22-2.95,.28,.24,.26,.53,.11,.83,.01,1.27-.54,2.13-1.82,2.46-.75,.36-1.51,.5-2.26,0-.31-.18-.75,.13-.99-.29Z"/>
  <path class="cls-64" d="M230.5,13.86c-1-.05-2.01,.2-2.99-.18,.9-.87,2.28-.79,2.99,.18Z"/>
  <path class="cls-85" d="M227.97,20.12c.75,0,1.51,0,2.26,0-.28,.83-.98,.71-1.64,.71-.51,0-.63-.29-.62-.7Z"/>
  <path class="cls-223" d="M232.04,17.66c-.04-.28-.07-.55-.11-.83,.02-.24,.04-.48,.07-.72,.54-.09,.73,.15,.72,.67,0,.48-.02,.91-.68,.88Z"/>
  <path class="cls-142" d="M98.69,32.7c.42,.42,.83,.83,1.25,1.25,.24,1.4,.4,2.79-.72,3.95h0c-.38,.38-.95,.53-1.25,1-.23,.43-.72,.25-1.06,.43-.23,0-.45,0-.68,0-.56-.14-1.16-.2-1.52-.73-1.7-1.14-2.17-3.74-.98-5.33,.22-.29,.49-.54,.74-.81,.29-.24,.62-.36,1-.36,.71-.03,1.43-.03,2.14,0,.46,.02,.85,.15,1.08,.59Z"/>
  <path class="cls-93" d="M97.74,32.38l-2.32,.02c-.18-.25-.17-.47,.08-.66,.73,0,1.46,0,2.18-.01,.21,.2,.23,.42,.06,.66Z"/>
  <path class="cls-108" d="M99.22,37.9c.77-1.22,.77-2.58,.72-3.95,.49,1.09,.24,2.21,.1,3.32-.06,.48-.51,.47-.82,.63Z"/>
  <path class="cls-105" d="M94.72,38.61c.74-.22,.99,.53,1.52,.73-.6-.06-1.5,.5-1.52-.73Z"/>
  <path class="cls-146" d="M96.92,39.33c.22-.29,.79-.16,.8-.68,.26-.2,.51-.22,.76,.02-.12,1.15-.97,.62-1.57,.66Z"/>
  <path class="cls-52" d="M98.49,38.67c-.25,0-.51-.01-.76-.02,.52-.22,.81-.87,1.51-.74,.21,.69-.35,.64-.74,.76Z"/>
  <path class="cls-198" d="M97.74,32.38c-.02-.22-.04-.44-.06-.66,.77-.11,.91,.41,1.01,.99-.29-.19-.59-.33-.95-.33Z"/>
  <path class="cls-187" d="M95.5,31.73c-.03,.22-.05,.44-.08,.66-.32,.03-.63,.05-.95,.08,.17-.48,.4-.88,1.03-.74Z"/>
  <path class="cls-142" d="M65.23,32.22c1.93,1.02,2.47,2.64,2.03,4.68-.34,.26-.53,.63-.76,.98,.1,.59-.39,.6-.75,.74-.37,.52-.96,.6-1.53,.72-.23,0-.45,0-.68,0-.56-.13-1.15-.21-1.53-.72h0c-1.27-.38-1.41-1.5-1.71-2.52,0-.46,0-.93,0-1.39,.16-.35,0-.84,.44-1.08,.49-.4,.91-.88,1.35-1.33,.22-.15,.47-.18,.73-.19,.8,.03,1.61-.15,2.41,.1Z"/>
  <path class="cls-86" d="M65.23,32.22c-.82,.36-1.67,.19-2.51,.16-.17-.24-.16-.46,.07-.66,.82,.13,1.81-.58,2.43,.49Z"/>
  <path class="cls-245" d="M60.3,36.11c.46,.91,.89,1.85,1.71,2.52-1.28-.11-1.84-.93-1.71-2.52Z"/>
  <path class="cls-47" d="M62.03,32.45c0,.73-.88,.82-1.04,1.43-.2-.24-.17-.48,0-.72,.21-.3,.2-.8,.75-.77,.11-.08,.21-.06,.28,.05Z"/>
  <path class="cls-173" d="M61,33.17c0,.24,0,.48,0,.72-.6-.02-.42,.59-.69,.83,.02-.61-.48-1.45,.69-1.55Z"/>
  <path class="cls-203" d="M62.02,38.62c.74-.25,.99,.54,1.53,.72-.6-.06-1.48,.49-1.53-.72Z"/>
  <path class="cls-170" d="M64.23,39.33c.56-.12,.8-.94,1.53-.72-.03,1.24-.93,.66-1.53,.72Z"/>
  <path class="cls-250" d="M62.03,32.45c-.09-.02-.19-.04-.28-.05,.24-.39,.45-.83,1.05-.68-.02,.22-.05,.44-.07,.66-.23,.02-.46,.05-.69,.07Z"/>
  <path class="cls-62" d="M66.5,37.87c-.06-.57,.03-1.02,.76-.98,.16,.65-.21,.88-.76,.98Z"/>
  <path class="cls-147" d="M86.68,38.59c-.43-.03-.84,0-1.18,.31-.62,.16-1.22,.14-1.73-.3,0-2.05-.02-4.09-.03-6.14,.9-.69,1.82-.32,2.74-.05,1.17,.96,2.13,2.03,1.94,3.69-.08,.58-.2,1.15-.74,1.51h0c-.2,.46-.54,.79-1.01,.99Z"/>
  <path class="cls-158" d="M86.49,32.41c-.91,.02-1.83,.04-2.74,.05,.17-.79,1.27-1.11,2.11-.59,.23,.14,.42,.36,.63,.54Z"/>
  <path class="cls-197" d="M83.77,38.6c.58,.06,1.21-.14,1.73,.3-.25,.84-.93,.38-1.41,.41-.5,.04-.35-.41-.32-.71Z"/>
  <path class="cls-189" d="M87.69,37.61c-.28-.76,.72-.9,.74-1.51,.07,.66,.32,1.4-.74,1.51Z"/>
  <path class="cls-189" d="M86.68,38.59c.17-.5,.53-.8,1.01-.99,.16,.83-.17,1.16-1.01,.99Z"/>
  <path class="cls-166" d="M169.84,36.45c-.52-.03-1.14,.13-1.09-.66,.06-.8,.54-1.79,1.15-1.75,.61,.04,.96,1.18,1.09,1.86,.16,.84-.77,.39-1.15,.56Z"/>
  <path class="cls-187" d="M173.52,37.93c-.25,.65,.91,.74,.58,1.42-1.25-.02-.67-.92-.75-1.51,.06,.02,.12,.05,.17,.08Z"/>
  <path class="cls-188" d="M225.01,33.95c1.02,.37,1.17,1.32,1.44,2.18-.34,.36-.79,.38-1.25,.36-1.02-.04-1.2-.35-.7-1.2,.25-.42,.28-.91,.5-1.34Z"/>
  <path class="cls-18" d="M225.01,33.95c-.1,.6,.17,1.27-.56,1.73-.39,.25-.01,.45,.3,.49,.57,.06,1.14,.11,1.71-.04-.01,1.48-1.14,.65-1.74,.75-.7,.12-.72-.55-.69-1.04,.05-.76,.6-1.29,.98-1.89Z"/>
  <path class="cls-80" d="M72.67,40.05c-.23,0-.46,.02-.69,.03,0-1.75,.02-3.5,.01-5.25,0-.56,.07-.99,.8-.87-.04,2.03-.08,4.06-.12,6.1Z"/>
  <path class="cls-39" d="M162.29,38.58c-.15,.1-.29,.2-.44,.29-.69,.17-1.35,.2-1.91-.34-.14-.26-.2-.53-.2-.82,.01-.74-.05-1.49,1.1-1.46,1.25,.03,1.61,.28,1.61,1.41,0,.31,.13,.65-.17,.91Z"/>
  <path class="cls-223" d="M162.29,38.58c.22-.78,.3-1.53-.49-2.07-.44-.31-.96-.29-1.41-.13-.45,.16-.25,.63-.27,.97-.02,.4,.02,.81,.03,1.22,.14,.24,.19,.49-.01,.73-.4,.06-.76,.04-.76-.5,0-.33-.02-.65-.02-.98,0-1.77,0-1.78,1.75-1.72,1.57,.06,2.04,1.06,1.18,2.49Z"/>
  <path class="cls-67" d="M161.59,32.45c.19,1.53-.17,2.07-1.46,2.19-.56-.72-.53-1.46-.03-2.19h0c.5-.41,.99-.22,1.49,0Z"/>
  <path class="cls-71" d="M160.1,32.45c0,.73,.02,1.46,.03,2.19-.88,.17-.82-.45-.75-.96,.06-.49-.42-1.35,.72-1.23Z"/>
  <path class="cls-43" d="M160.13,39.29c0-.24,0-.48,.01-.73,.55,.2,1.2-.15,1.7,.31-.4,.84-1.12,.37-1.72,.41Z"/>
  <path class="cls-141" d="M161.59,32.45c-.5,0-.99,0-1.49,0-.02-.27-.1-.59,.25-.71,.66-.21,.84,.45,1.24,.71Z"/>
  <path class="cls-34" d="M142.17,32.35c.74,.1,.74,.65,.74,1.19,0,.53,.03,1.11-.73,1.19-.12-.06-.2-.15-.25-.27-.15-.61-.15-1.23,0-1.85,.05-.12,.13-.21,.25-.27Z"/>
  <path class="cls-114" d="M139.91,34.63c0-.72,0-1.44,0-2.17,.27-.24,.54-.24,.82-.01,.37,.73,.36,1.46,0,2.19-.28,.23-.55,.24-.82-.01Z"/>
  <path class="cls-203" d="M139.91,34.63c.25,0,.49,0,.74,0,.48-.36,.97-.36,1.46,0,.02,.04,.05,.07,.08,.1-.22,1.02-1.04,.61-1.66,.67-.57,.05-.67-.31-.61-.77Z"/>
  <path class="cls-245" d="M140.64,32.45c-.24,0-.49,.01-.73,.02-.04-1.18,.82-.85,1.35-.65,.28,.11,.63,.33,.92,.54-.02,.04-.04,.07-.07,.11-.49,.37-.98,.35-1.47-.01Z"/>
  <path class="cls-187" d="M133.65,30.77c0,.05,0,.11,0,.16q-2.51,.09-2.51,2.59c0,2.18,.02,4.36,.03,6.53-.17,.01-.35,.03-.53,.04-.03-2.87-.05-5.73-.09-8.6,0-.52,.22-.76,.73-.76,.78,0,1.57,.02,2.35,.03Z"/>
  <path class="cls-147" d="M134.41,36.38c.16,.46,.79,.65,.7,1.25-.44,.55-.87,1.12-1.66,1.21-.31,0-.58-.05-.74-.35-.05-.11-.1-.23-.12-.35-.22-1.71,.12-2.03,1.82-1.75Z"/>
  <path class="cls-115" d="M133.64,32.44c.84,.74,.91,1.47-.01,2.2-.27,.24-.55,.24-.83,.02-.37-.73-.37-1.47,0-2.21,.28-.23,.56-.22,.84-.01Z"/>
  <path class="cls-161" d="M132.91,34.63c.24,0,.48,0,.72,0,0,.49,.01,.98,.02,1.47-.48,.2-.96,.36-1.47,.1-.01-.52-.02-1.05-.03-1.57,.25-.19,.5-.18,.76-.01Z"/>
  <path class="cls-238" d="M132.18,36.22c.49-.03,.98-.07,1.47-.1,.24,.12,.59-.04,.76,.26q-1.6,.07-1.49,2.23c-.24,.23-.49,.22-.74,0-.1-.8-.1-1.6,0-2.39Z"/>
  <path class="cls-129" d="M132.91,34.63c-.25,0-.51,0-.76,.01,0-.73,0-1.46,.01-2.19,.24-.22,.49-.22,.74,0,0,.73,0,1.45,0,2.18Z"/>
  <path class="cls-255" d="M132.18,38.61c.25,0,.49,0,.74,0,.24,0,.47,0,.71,0,.27-.12,.53-.16,.78,.04,.01,1.06-.82,.67-1.34,.72-.48,.04-1.07,.06-.89-.74Z"/>
  <path class="cls-2" d="M132.91,32.45c-.25,0-.49,0-.74,0-.09-.58,.2-.76,.75-.78,.59-.03,.82,.2,.73,.76-.25,0-.49,0-.74,.01Z"/>
  <path class="cls-100" d="M134.41,38.64c-.26-.01-.52-.03-.78-.04,.65-.09,.73-1.04,1.48-.97,.16,.61,.02,1-.7,1.01Z"/>
  <path class="cls-144" d="M147.58,40.09c-.23,0-.47,0-.7-.01,0-2.72-.01-5.43,0-8.15,0-.33-.2-.88,.32-.91,.67-.04,.43,.59,.43,.93,0,2.72-.03,5.43-.05,8.15Z"/>
  <path class="cls-225" d="M57.96,39.37l.04,.71c-1.31,0-2.63,0-3.94-.01,0-2.72-.01-5.43,0-8.15,0-.34-.18-.87,.33-.93,.63-.07,.54,.57,.55,.91,.06,1.93,.04,3.87,.06,5.8q.01,1.69,1.73,1.69c.42,0,.83,0,1.25-.02Z"/>
  <path class="cls-38" d="M188.95,32.36c-.63,0-.66,.4-.67,.89-.01,.51,.2,.74,.69,.76,0,.52,.28,.69,.78,.66,.53-.03,1.06,.02,1.59-.01,.54-.03,.74,.2,.69,.71-.96,.44-2.01-.1-2.98,.29-.03,.14-.05,.29-.08,.43-1.39,.51-.44,1.65-.65,2.48-.13,.51,.14,.86,.76,.73,.98,.03,1.96,.06,2.94,.08,.11,.64-.24,.75-.78,.74-1.23-.03-2.46-.02-3.69-.02-.43-.73-.18-1.52-.19-2.27-.04-1.92,.03-3.85-.03-5.77-.03-.95,.31-1.22,1.22-1.16,.94,.07,1.9,0,2.85,.02,.33,0,.81-.14,.77,.48-.7,.55-1.52,.22-2.28,.27-.51,.03-.91,.07-.93,.69Z"/>
  <path class="cls-205" d="M201.52,40.82c-.24,0-.49,.01-.73,.02,0-3.87,0-7.74,.01-11.6,.9-.07,.72,.59,.72,1.09,0,3.5,0,7,0,10.5Z"/>
  <path class="cls-17" d="M220.2,11.7c0,3.28,0,6.56,0,9.83q-1.7,.07-1.7-1.59c0-2.22,0-4.43,0-6.65q0-1.66,1.7-1.6Z"/>
  <path class="cls-212" d="M121.9,40.84c-.24,0-.48,0-.72,0,0-3.54,0-7.08-.02-10.61,0-.41-.05-.83,.28-1.16,.6,.19,.48,.69,.48,1.12,0,3.55-.01,7.1-.02,10.65Z"/>
  <path class="cls-212" d="M242.94,40.1c-1.32,0-2.64-.01-3.96-.02,0-3.04,.01-6.07,.02-9.11,.79-.06,.7,.49,.7,.98,0,2.13,0,4.26,0,6.39,0,.56-.04,1.13,.82,.97,.62,0,1.23,0,1.85,.04,.57,.04,.57,.07,.57,.75Z"/>
  <path class="cls-225" d="M235.68,30.98c.04,.46,.33,.68,.77,.74,.14,1.22,.15,2.44,0,3.65-.63,.26-1.03,.91-1.76,1-.4,.02-.79,.04-1.19,.06-.63-.15-.79,.19-.78,.72,0,.97,0,1.94-.01,2.91-.23,0-.47,.01-.7,.02-.02-2.78-.03-5.56-.07-8.34-.01-.67,.29-.85,.9-.82,.95,.04,1.9,.04,2.85,.06Z"/>
  <path class="cls-99" d="M189.06,35.66c.95-.51,2-.05,2.98-.29-.94,.61-1.99,.14-2.98,.29Z"/>
  <path class="cls-225" d="M245.99,32.46c0,.48,0,.95,0,1.43-.1,.6,.21,.77,.76,.77,.97-.01,1.94,.01,2.91,.02,.17,.67-.23,.76-.76,.75-.74-.01-1.48,.02-2.23,0-.53-.01-.77,.2-.7,.73-.02,.81-.03,1.62-.06,2.44-.02,.56,.17,.87,.8,.71,1.06,.03,2.11,.06,3.17,.09,0,.22,0,.44-.01,.66-1.55,0-3.1,0-4.65,0-.37-.34-.39-.79-.39-1.25,0-2.21,0-4.42,0-6.63,0-.93,.27-1.47,1.36-1.37,.94,.09,1.9,.01,2.85,.02,.42,0,.9-.04,.68,.64-.91,.44-1.87,.11-2.8,.2-.52,.05-1.04,.03-.92,.78Z"/>
  <path class="cls-80" d="M249.71,31.48c-.08-.59-.55-.51-.95-.51-.87,0-1.74,.04-2.6-.01-.78-.05-.99,.28-.98,1.01,.04,2.7,.03,5.4,.03,8.11-.23,.01-.46,.02-.69,.03-.11-3.1-.12-6.21,0-9.31,1.77,0,3.55,0,5.32-.01,.02,.22,.05,.44,.07,.67-.07,.01-.14,.03-.21,.03Z"/>
  <path class="cls-142" d="M140.64,32.45c.49,0,.98,0,1.47,.01,.1,.72,.11,1.45,0,2.17-.49,0-.97,0-1.46,0,0-.73,0-1.46,0-2.19Z"/>
  <path class="cls-198" d="M233.37,34.75c-1.24-.29-.55-1.26-.62-1.91-.09-.73,.67-.96,1.2-1.13,.42-.13,1.05-.16,1.04,.63-.01,.12-.08,.21-.18,.27-1.36,.08-.89,1.24-1.17,1.95-.06,.11-.15,.17-.27,.19Z"/>
  <path class="cls-4" d="M234.99,32.34c.88,.09,.78,.74,.78,1.33,0,.54-.05,1.05-.78,1.06-.05-.05-.11-.1-.16-.15-.27-.72-.35-1.42,.13-2.1,0-.05,.01-.1,.03-.14Z"/>
  <path class="cls-198" d="M234.98,34.73c.02,.61-.39,.66-.86,.7-.53,.04-.72-.22-.75-.68,.04-.03,.08-.06,.11-.1,.48-.36,.97-.38,1.46-.03l.03,.11Z"/>
  <path class="cls-16" d="M234.95,34.62c-.49,.01-.98,.02-1.46,.03,0-.28,.02-.56-.03-.83-.24-1.27,.32-1.64,1.5-1.34,0,.71,0,1.42,0,2.14Z"/>
</svg>