<?xml version="1.0" encoding="UTF-8"?>
<svg id="Layer_1" data-name="Layer 1" xmlns="http://www.w3.org/2000/svg" xmlns:xlink="http://www.w3.org/1999/xlink" viewBox="0 0 318.73 184.82">
  <defs>
    <style>
      .cls-1 {
        font-family: Poppins-SemiBold, Poppins;
        font-weight: 600;
        letter-spacing: .03em;
      }

      .cls-1, .cls-2, .cls-3 {
        fill: #2cb1de;
      }

      .cls-1, .cls-3 {
        font-size: 45px;
      }

      .cls-4 {
        fill: #3784a1;
      }

      .cls-2 {
        font-size: 16px;
        letter-spacing: .2em;
      }

      .cls-2, .cls-3 {
        font-family: Poppins-Light, Poppins;
        font-weight: 300;
      }

      .cls-5 {
        fill: url(#New_Gradient_Swatch_copy_7-4);
      }

      .cls-6 {
        fill: url(#New_Gradient_Swatch_copy_7-3);
      }

      .cls-7 {
        fill: url(#New_Gradient_Swatch_copy_7-5);
      }

      .cls-8 {
        fill: url(#New_Gradient_Swatch_copy_7);
      }

      .cls-3 {
        letter-spacing: 0em;
      }

      .cls-9 {
        fill: url(#New_Gradient_Swatch_copy_7-2);
      }
    </style>
    <linearGradient id="New_Gradient_Swatch_copy_7" data-name="New Gradient Swatch copy 7" x1="61.41" y1="102.79" x2="55.3" y2="116.68" gradientUnits="userSpaceOnUse">
      <stop offset="0" stop-color="#1ba8d5"/>
      <stop offset=".98" stop-color="#40c7f1"/>
    </linearGradient>
    <linearGradient id="New_Gradient_Swatch_copy_7-2" data-name="New Gradient Swatch copy 7" x1="80" y1="41.36" x2="110.65" y2="72" xlink:href="#New_Gradient_Swatch_copy_7"/>
    <linearGradient id="New_Gradient_Swatch_copy_7-3" data-name="New Gradient Swatch copy 7" x1="101.45" y1="75.95" x2="72.68" y2="85.21" xlink:href="#New_Gradient_Swatch_copy_7"/>
    <linearGradient id="New_Gradient_Swatch_copy_7-4" data-name="New Gradient Swatch copy 7" x1="75.19" y1="52.74" x2="66.01" y2="102.93" xlink:href="#New_Gradient_Swatch_copy_7"/>
    <linearGradient id="New_Gradient_Swatch_copy_7-5" data-name="New Gradient Swatch copy 7" x1="117.8" y1="34.24" x2="63.42" y2="157.83" xlink:href="#New_Gradient_Swatch_copy_7"/>
  </defs>
  <g>
    <g>
      <polygon class="cls-8" points="50.8 98.01 57.98 116.14 70.75 110.49 50.8 98.01"/>
      <polygon class="cls-9" points="71.06 41.89 83.33 39.14 114.4 66.27 112.6 78.31 71.06 41.89"/>
      <polyline class="cls-4" points="112.6 78.31 98.88 71.25 103.16 70.04"/>
      <polygon class="cls-6" points="98.88 71.25 73.11 79.12 71.06 91.02 112.6 78.31 98.88 71.25"/>
      <polyline class="cls-4" points="74.07 90.1 73.94 92.15 68.88 93.37 71.25 79.84 73.11 79.12 71.06 91.02"/>
      <polygon class="cls-5" points="81.31 50.88 76.65 78.04 71.25 79.84 68.88 93.37 73.94 92.15 71.25 107.76 60.07 103.81 70.33 45.79 81.31 50.88"/>
      <polygon class="cls-4" points="71.06 41.89 70.33 45.79 81.31 50.88 71.06 41.89"/>
      <polygon class="cls-4" points="70.75 110.49 71.25 107.76 60.07 103.81 70.75 110.49"/>
    </g>
    <polygon class="cls-7" points="121.41 146.48 24.64 125.51 117.17 140.09 141.24 43.56 121.41 146.48"/>
  </g>
  <text class="cls-3" transform="translate(157.63 95.67)"><tspan x="0" y="0">Para</tspan></text>
  <text class="cls-1" transform="translate(261.69 96.35)"><tspan x="0" y="0">V</tspan></text>
  <text class="cls-2" transform="translate(159.33 117.95)"><tspan x="0" y="0">ENGINEERING</tspan></text>
</svg>