<?xml version="1.0" encoding="UTF-8"?>
<svg id="Layer_1" data-name="Layer 1" xmlns="http://www.w3.org/2000/svg" xmlns:xlink="http://www.w3.org/1999/xlink" viewBox="0 0 120.15 47.33">
  <defs>
    <style>
      .cls-1 {
        letter-spacing: .13em;
      }

      .cls-2 {
        fill: #fff;
      }

      .cls-3 {
        letter-spacing: .11em;
      }

      .cls-4 {
        fill: url(#New_Gradient_Swatch_copy_2);
      }

      .cls-5 {
        fill: #0a519b;
        font-family: ProjectSans-Medium, 'Project Sans';
        font-weight: 500;
      }

      .cls-5, .cls-6 {
        font-size: 10.74px;
      }

      .cls-7 {
        fill: url(#New_Gradient_Swatch_copy);
      }

      .cls-8 {
        letter-spacing: .15em;
      }

      .cls-9 {
        letter-spacing: .12em;
      }

      .cls-10 {
        fill: url(#New_Gradient_Swatch_copy_3);
      }

      .cls-11 {
        letter-spacing: .12em;
      }

      .cls-12 {
        letter-spacing: .15em;
      }

      .cls-6 {
        fill: #1887c0;
        font-family: ProjectSans-Regular, 'Project Sans';
      }
    </style>
    <linearGradient id="New_Gradient_Swatch_copy" data-name="New Gradient Swatch copy" x1="32.93" y1="32.97" x2="18.09" y2="17.08" gradientUnits="userSpaceOnUse">
      <stop offset=".38" stop-color="#1887c0"/>
      <stop offset="1" stop-color="#174f78"/>
    </linearGradient>
    <linearGradient id="New_Gradient_Swatch_copy_2" data-name="New Gradient Swatch copy 2" x1="30.11" y1="18.87" x2="23.5" y2="11.79" gradientUnits="userSpaceOnUse">
      <stop offset="0" stop-color="#0dafbf"/>
      <stop offset="1" stop-color="#174f78"/>
    </linearGradient>
    <linearGradient id="New_Gradient_Swatch_copy_3" data-name="New Gradient Swatch copy 3" x1="34.32" y1="14.92" x2="29.01" y2="23.76" gradientUnits="userSpaceOnUse">
      <stop offset="0" stop-color="#1887c0"/>
      <stop offset="1" stop-color="#174f78"/>
    </linearGradient>
  </defs>
  <rect class="cls-2" width="120.15" height="47.33"/>
  <g>
    <g>
      <path class="cls-7" d="M15.34,18.83s3.56-1.6,7.35,0c0,0,1.43,.51,2.88,1.72,0,0,2.84,2.36,4.15,2.05,0,0,2.08,.25,5.14-3.68l-2.76,5.75-2.49,4.71s-3.06,5.59-9.41,6.09c0,0,7.27-2,4.74-8.6,0-.02-.02-.05-.03-.07,0,0-3.68-6.55-9.56-7.96Z"/>
      <circle class="cls-4" cx="28.92" cy="17.6" r="2.72"/>
      <path class="cls-10" d="M27.27,21.77s.58-.2,.81-.87c0,0,2.09,.56,3.59-1.37s-.05-4-.05-4c0,0,2.83-2.51,5.96-2.91l-2.73,6.3s-3.94,5.92-7.58,2.85Z"/>
    </g>
    <text class="cls-5" transform="translate(34.58 31.53)"><tspan class="cls-12" x="0" y="0">ou</tspan><tspan class="cls-1" x="15.08" y="0">n</tspan><tspan class="cls-12" x="22.43" y="0">der</tspan></text>
    <text class="cls-6" transform="translate(77.97 31.53)"><tspan class="cls-9" x="0" y="0">B</tspan><tspan class="cls-11" x="7.49" y="0">o</tspan><tspan class="cls-3" x="14.65" y="0">t</tspan><tspan class="cls-8" x="19.73" y="0">s</tspan></text>
  </g>
</svg>